<svg width="96" height="96" viewBox="0 0 96 96" fill="none" xmlns="http://www.w3.org/2000/svg">
  <g clip-path="url(#2aikmg5q0a)">
    <path d="m35.04 21.558-.224.106c-1.127.531-1.59 1.841-1.039 2.925l1.544 3.029c.552 1.084 1.914 1.53 3.04.999l.224-.106c.837-.393 1.847-.269 2.527.342.234.21.475.415.718.609.72.571.98 1.522.679 2.37l-.08.228c-.406 1.143.23 2.383 1.414 2.774l3.316 1.09c1.188.39 2.477-.221 2.883-1.361l.08-.229c.307-.866 1.143-1.445 2.093-1.477.287-.01.575-.026.86-.053.944-.082 1.844.39 2.263 1.209l.11.215c.553 1.084 1.914 1.53 3.041 1l3.148-1.486c1.127-.531 1.59-1.841 1.038-2.925l-.11-.215a2.106 2.106 0 0 1 .356-2.431c.218-.226.431-.455.633-.691.593-.694 1.582-.943 2.465-.654l.235.077c1.188.39 2.477-.218 2.883-1.36l.566-1.597.566-1.597c.406-1.142-.229-2.383-1.413-2.773l-.238-.077a2.207 2.207 0 0 1-1.535-2.014 13.89 13.89 0 0 0-.056-.83 2.182 2.182 0 0 1 1.257-2.178l.223-.106c1.127-.531 1.591-1.841 1.039-2.925l-1.544-3.03c-.552-1.083-1.913-1.53-3.04-.998l-.224.106c-.837.393-1.847.269-2.526-.343a15.32 15.32 0 0 0-.718-.608 2.115 2.115 0 0 1-.68-2.373l.08-.228c.406-1.142-.226-2.383-1.413-2.774L57.82.654 56.16.109c-1.187-.39-2.477.22-2.883 1.36l-.08.229c-.306.866-1.143 1.445-2.093 1.477-.287.01-.574.027-.859.053-.944.082-1.844-.39-2.264-1.209l-.11-.215C47.319.72 45.958.274 44.832.805L41.682 2.29c-1.126.532-1.59 1.841-1.038 2.925l.11.216a2.106 2.106 0 0 1-.356 2.43c-.218.226-.43.458-.632.691-.594.694-1.582.944-2.466.654l-.238-.077c-1.187-.39-2.477.22-2.882 1.36l-.566 1.597-.567 1.597c-.406 1.142.23 2.383 1.414 2.774l.238.077c.9.294 1.502 1.1 1.535 2.014.011.276.028.552.055.828a2.17 2.17 0 0 1-1.25 2.182zm9.297-4.39a6.937 6.937 0 0 1 .989-2.781 7.14 7.14 0 0 1 1.78-1.953c.398-.3.835-.566 1.304-.789a7.58 7.58 0 0 1 4.142-.67 7.568 7.568 0 0 1 2.894.951 7.248 7.248 0 0 1 2.03 1.714 6.924 6.924 0 0 1 1.35 2.646c.227.861.276 1.738.166 2.594a7.002 7.002 0 0 1-.343 1.442 7.143 7.143 0 0 1-2.427 3.295c-.398.3-.834.566-1.303.789a7.581 7.581 0 0 1-4.142.67 7.57 7.57 0 0 1-2.894-.951 7.25 7.25 0 0 1-2.03-1.714 6.914 6.914 0 0 1-1.35-2.646 6.897 6.897 0 0 1-.166-2.596zm12.639 33.426 2.273-2.186a2.128 2.128 0 0 0 0-3.09l-6.573-6.323a2.335 2.335 0 0 0-3.211 0l-2.273 2.186a2.332 2.332 0 0 1-2.61.412 26.688 26.688 0 0 0-3.34-1.334c-.92-.297-1.539-1.132-1.539-2.067v-3.09c0-1.206-1.016-2.184-2.27-2.184h-9.297c-1.254 0-2.27.978-2.27 2.184v3.09c0 .935-.619 1.767-1.538 2.067a26.688 26.688 0 0 0-3.341 1.334 2.33 2.33 0 0 1-2.61-.412l-2.272-2.186a2.335 2.335 0 0 0-3.212 0l-3.286 3.161-3.286 3.162a2.128 2.128 0 0 0 0 3.09l2.272 2.186c.688.662.862 1.674.428 2.511-.535 1.034-1 2.107-1.386 3.215-.309.885-1.176 1.48-2.148 1.48H2.27c-1.254 0-2.27.978-2.27 2.184v8.943c0 1.206 1.016 2.184 2.27 2.184H5.48c.972 0 1.837.595 2.149 1.48.386 1.107.85 2.18 1.386 3.214.434.84.26 1.85-.428 2.511l-2.273 2.187a2.128 2.128 0 0 0 0 3.09l3.286 3.161 3.286 3.162a2.335 2.335 0 0 0 3.212 0l2.273-2.187a2.332 2.332 0 0 1 2.61-.412c1.073.516 2.189.962 3.34 1.334.92.298 1.538 1.132 1.538 2.067v3.09c0 1.206 1.017 2.184 2.27 2.184h9.298c1.254 0 2.27-.978 2.27-2.184v-3.09c0-.935.618-1.77 1.538-2.067a26.666 26.666 0 0 0 3.341-1.334 2.331 2.331 0 0 1 2.61.412l2.272 2.187a2.335 2.335 0 0 0 3.212 0l6.572-6.323a2.128 2.128 0 0 0 0-3.09l-2.273-2.187a2.118 2.118 0 0 1-.428-2.51c.536-1.034 1-2.108 1.387-3.215.309-.885 1.176-1.48 2.148-1.48h3.212c1.253 0 2.27-.978 2.27-2.184v-8.943c0-1.206-1.017-2.184-2.27-2.184h-3.212c-.972 0-1.84-.595-2.148-1.48a24.587 24.587 0 0 0-1.387-3.215 2.125 2.125 0 0 1 .434-2.51zM45.2 66.993a11.856 11.856 0 0 1-1.784 4.123 12.57 12.57 0 0 1-1.662 1.977 12.907 12.907 0 0 1-6.34 3.316 13.227 13.227 0 0 1-5.269 0 12.907 12.907 0 0 1-6.34-3.316c-.624-.6-1.18-1.262-1.662-1.977a11.907 11.907 0 0 1-1.784-4.123 11.815 11.815 0 0 1 0-5.07 11.855 11.855 0 0 1 1.784-4.123 12.414 12.414 0 0 1 1.662-1.977 12.905 12.905 0 0 1 6.34-3.316 13.227 13.227 0 0 1 5.269 0 12.905 12.905 0 0 1 6.34 3.316c.624.6 1.18 1.262 1.662 1.977a11.909 11.909 0 0 1 1.784 4.123 11.815 11.815 0 0 1 0 5.07zm47.842-21.986a13.961 13.961 0 0 0-.023-.592 2.194 2.194 0 0 1 1.32-2.145c1.14-.502 1.643-1.798 1.121-2.895l-1.253-2.639c-.522-1.097-1.87-1.58-3.01-1.078-.862.38-1.87.194-2.549-.441-.149-.139-.298-.274-.453-.404-.71-.609-.977-1.563-.646-2.418.44-1.132-.16-2.389-1.336-2.81l-1.414-.508-1.414-.508c-1.176-.422-2.483.154-2.922 1.286-.331.858-1.181 1.408-2.134 1.421-.204.003-.412.011-.616.022-.947.053-1.834-.441-2.228-1.27-.522-1.098-1.87-1.581-3.01-1.079l-2.742 1.206c-1.14.502-1.643 1.799-1.121 2.896.394.83.201 1.799-.459 2.453-.144.143-.284.287-.42.435a2.354 2.354 0 0 1-2.512.622c-1.177-.422-2.483.154-2.922 1.286l-1.052 2.718c-.436 1.132.16 2.388 1.336 2.81a2.208 2.208 0 0 1 1.478 2.054c.002.197.01.396.022.593a2.193 2.193 0 0 1-1.32 2.144c-1.14.502-1.643 1.799-1.121 2.896l1.253 2.638c.522 1.098 1.87 1.581 3.01 1.079a2.356 2.356 0 0 1 2.55.441c.148.138.297.274.452.404.71.608.977 1.562.646 2.418-.436 1.131.16 2.388 1.337 2.81l1.413.508 1.414.505c1.177.42 2.483-.154 2.922-1.286.331-.858 1.182-1.408 2.134-1.422.205-.002.412-.01.616-.02.947-.054 1.834.44 2.229 1.27.522 1.097 1.87 1.58 3.01 1.078l2.742-1.206c1.14-.503 1.643-1.799 1.12-2.896-.394-.83-.2-1.799.46-2.453.143-.143.284-.286.419-.435a2.354 2.354 0 0 1 2.513-.622c1.176.422 2.482-.154 2.921-1.286l1.052-2.718c.437-1.132-.16-2.388-1.336-2.81h-.003a2.209 2.209 0 0 1-1.474-2.052zM85.407 46.2a6.462 6.462 0 0 1-1.002 2.588 6.73 6.73 0 0 1-1.723 1.788c-.381.27-.796.51-1.246.707a7.276 7.276 0 0 1-1.37.443 7.203 7.203 0 0 1-3.929-.26 7.077 7.077 0 0 1-1.292-.62 6.79 6.79 0 0 1-1.858-1.657 6.633 6.633 0 0 1-1.196-2.516 6.462 6.462 0 0 1 .914-5.024 6.73 6.73 0 0 1 1.723-1.788 7.03 7.03 0 0 1 2.615-1.15 7.203 7.203 0 0 1 3.93.26c.45.162.883.369 1.292.619.71.43 1.345.988 1.858 1.658.282.366.53.768.735 1.198a6.42 6.42 0 0 1 .55 3.754z" fill="#C8B08F"/>
  </g>
  <defs>
    <clipPath id="2aikmg5q0a">
      <path fill="#fff" d="M0 0h96v96H0z"/>
    </clipPath>
  </defs>
</svg>
