<svg width="24" height="25" viewBox="0 0 24 25" fill="none" xmlns="http://www.w3.org/2000/svg">
    <g clip-path="url(#qf0h3fwq5a)">
        <path d="M10.8 17.88a.712.712 0 1 1 0 1.424.712.712 0 0 1 0-1.424zm11.024-4.35a.712.712 0 1 1 .713-.713.738.738 0 0 1-.713.713zm0-2.888c-1.2 0-2.175.975-2.175 2.175 0 .225.038.45.113.675l-7.163 3.825a2.173 2.173 0 0 0-1.8-.937c-.825 0-1.575.487-1.95 1.2L2.4 14.205c-.675-.375-1.2-1.463-1.125-2.513.038-.525.225-.937.488-1.087.187-.113.375-.075.637.037l.038.038c1.725.9 7.312 3.825 7.537 3.937.375.15.563.225 1.2-.075l11.55-6c.188-.075.375-.225.375-.487 0-.338-.337-.488-.337-.488-.675-.3-1.688-.787-2.663-1.237-2.1-.975-4.5-2.1-5.55-2.663-.9-.487-1.65-.075-1.762 0l-.263.113C7.762 6.18 1.462 9.292 1.087 9.517c-.638.375-1.05 1.163-1.088 2.138-.075 1.537.713 3.15 1.838 3.712l6.825 3.525c.15 1.05 1.087 1.875 2.137 1.875 1.2 0 2.138-.937 2.175-2.137l7.5-4.05c.375.3.863.45 1.35.45 1.2 0 2.175-.975 2.175-2.175 0-1.238-.975-2.213-2.175-2.213z" fill="#C8B08F"/>
    </g>
    <defs>
        <clipPath id="qf0h3fwq5a">
            <path fill="#fff" transform="translate(0 .105)" d="M0 0h24v24H0z"/>
        </clipPath>
    </defs>
</svg>
