<svg width="25" height="25" viewBox="0 0 25 25" fill="none" xmlns="http://www.w3.org/2000/svg">
<path d="M7.75 18.79C11.0637 18.79 13.75 16.1037 13.75 12.79C13.75 9.47633 11.0637 6.79004 7.75 6.79004C4.43629 6.79004 1.75 9.47633 1.75 12.79C1.75 16.1037 4.43629 18.79 7.75 18.79Z" fill="#C8B08F"/>
<path d="M17.75 18.29C19.4069 18.29 20.75 15.8276 20.75 12.79C20.75 9.75247 19.4069 7.29004 17.75 7.29004C16.0931 7.29004 14.75 9.75247 14.75 12.79C14.75 15.8276 16.0931 18.29 17.75 18.29Z" fill="#C8B08F"/>
<path d="M22.75 17.79C23.3023 17.79 23.75 15.5515 23.75 12.79C23.75 10.0286 23.3023 7.79004 22.75 7.79004C22.1977 7.79004 21.75 10.0286 21.75 12.79C21.75 15.5515 22.1977 17.79 22.75 17.79Z" fill="#C8B08F"/>
</svg>
