<svg width="25" height="25" viewBox="0 0 25 25" fill="none" xmlns="http://www.w3.org/2000/svg">
    <g clip-path="url(#2o179qpswa)">
        <path d="M24.5 4.458a9.642 9.642 0 0 1-2.822.812 5.037 5.037 0 0 0 2.157-2.8c-.953.588-2.008 1-3.12 1.235-.907-1.012-2.18-1.6-3.626-1.6-2.696 0-4.899 2.259-4.899 5.047 0 .4.046.788.126 1.153-4.084-.212-7.72-2.224-10.141-5.27a5.09 5.09 0 0 0-.665 2.529c0 1.753.86 3.306 2.19 4.188-.814 0-1.57-.235-2.236-.588v.035c0 2.447 1.698 4.494 3.946 4.953a4.727 4.727 0 0 1-2.214.082c.62 1.989 2.42 3.471 4.589 3.506a9.624 9.624 0 0 1-6.115 2.165c-.39 0-.78-.024-1.17-.07a13.682 13.682 0 0 0 7.549 2.27c9.04 0 14.007-7.694 14.007-14.365 0-.223 0-.435-.011-.659A9.978 9.978 0 0 0 24.5 4.458z" fill="#C8B08F"/>
    </g>
    <defs>
        <clipPath id="2o179qpswa">
            <path fill="#fff" transform="translate(.5 .105)" d="M0 0h24v24H0z"/>
        </clipPath>
    </defs>
</svg>
