<svg width="25" height="24" viewBox="0 0 25 24" fill="none" xmlns="http://www.w3.org/2000/svg">
    <g clip-path="url(#i6bdrkeowa)" stroke-width=".101" stroke-linecap="round" stroke-linejoin="round">
        <path d="M23.305 1 13.94 7.877l1.732-4.057L23.305 1z" fill="#E2761B" stroke="#E2761B"/>
        <path d="m1.686 1 9.29 6.942L9.328 3.82 1.686 1zM19.936 16.942 17.44 20.72l5.337 1.452 1.534-5.147-4.377-.083zM.697 17.025l1.525 5.147 5.336-1.452-2.494-3.778-4.367.083z" fill="#E4761B" stroke="#E4761B"/>
        <path d="M7.257 10.558 5.77 12.782l5.299.233-.188-5.63-3.624 3.173zM17.733 10.557l-3.67-3.238-.123 5.695 5.29-.232-1.497-2.225zM7.559 20.72l3.18-1.536-2.747-2.122-.433 3.658zM14.25 19.184l3.191 1.536L17 17.063l-2.748 2.121z" fill="#E4761B" stroke="#E4761B"/>
        <path d="m17.441 20.72-3.19-1.535.254 2.056-.029.866 2.965-1.387zM7.559 20.72l2.964 1.387-.018-.866.235-2.056-3.181 1.535z" fill="#D7C1B3" stroke="#D7C1B3"/>
        <path d="m10.57 15.704-2.654-.773 1.873-.846.781 1.619zM14.42 15.704l.781-1.62 1.883.847-2.664.773z" fill="#233447" stroke="#233447"/>
        <path d="m7.559 20.72.451-3.778-2.946.083L7.56 20.72zM16.99 16.942l.452 3.778 2.494-3.695-2.946-.083zM19.23 12.782l-5.29.232.49 2.69.78-1.62 1.883.848 2.136-2.15zM7.916 14.931l1.882-.846.772 1.619.499-2.69-5.299-.232 2.146 2.15z" fill="#CD6116" stroke="#CD6116"/>
        <path d="m5.77 12.782 2.221 4.28-.075-2.13-2.146-2.15zM17.093 14.931 17 17.064l2.23-4.281-2.136 2.15zM11.07 13.015l-.5 2.69.622 3.173.141-4.179-.263-1.684zM13.94 13.015l-.254 1.675.113 4.188.63-3.174-.489-2.69z" fill="#E4751F" stroke="#E4751F"/>
        <path d="m14.429 15.704-.63 3.173.451.307 2.748-2.122.095-2.13-2.664.772zM7.916 14.931l.075 2.132 2.749 2.121.451-.307-.62-3.173-2.655-.773z" fill="#F6851B" stroke="#F6851B"/>
        <path d="m14.476 22.107.028-.866-.235-.205h-3.548l-.216.205.018.866L7.56 20.72l1.035.838L10.693 23h3.604l2.109-1.442 1.035-.838-2.965 1.387z" fill="#C0AD9E" stroke="#C0AD9E"/>
        <path d="m14.25 19.185-.451-.308h-2.607l-.452.308-.236 2.056.217-.204h3.548l.235.204-.254-2.056z" fill="#161616" stroke="#161616"/>
        <path d="m23.7 8.324.8-3.797L23.305 1 14.25 7.645l3.482 2.912 4.922 1.424 1.092-1.256-.47-.335.752-.68-.583-.446.753-.568-.5-.372zM.5 4.527l.8 3.797-.508.372.753.568-.574.447.753.679-.471.335 1.082 1.256 4.923-1.424 3.482-2.912L1.686 1 .5 4.527z" fill="#763D16" stroke="#763D16"/>
        <path d="m22.655 11.981-4.922-1.423 1.497 2.224-2.231 4.28 2.937-.037h4.376l-1.657-5.044zM7.257 10.558 2.335 11.98.697 17.025h4.367l2.927.038-2.22-4.281 1.486-2.224zM13.94 13.014l.31-5.37 1.431-3.824H9.328l1.412 3.825.33 5.37.112 1.693.01 4.17h2.607l.019-4.17.122-1.694z" fill="#F6851B" stroke="#F6851B"/>
    </g>
    <defs>
        <clipPath id="i6bdrkeowa">
            <path fill="#fff" transform="translate(.5)" d="M0 0h24v24H0z"/>
        </clipPath>
    </defs>
</svg>
