<svg width="24" height="24" viewBox="0 0 24 24" fill="none" xmlns="http://www.w3.org/2000/svg">
    <path d="M4.914 7.374c3.914-3.832 10.258-3.832 14.178 0l.471.462a.484.484 0 0 1 0 .694l-1.613 1.577a.26.26 0 0 1-.354 0l-.65-.633a7.099 7.099 0 0 0-9.89 0l-.693.68a.252.252 0 0 1-.354 0L4.397 8.576a.484.484 0 0 1 0-.694l.517-.508zm17.51 3.264 1.43 1.404a.484.484 0 0 1 0 .695l-6.463 6.332a.508.508 0 0 1-.71 0l-4.59-4.494a.13.13 0 0 0-.177 0l-4.59 4.494a.508.508 0 0 1-.71 0L.148 12.737a.484.484 0 0 1 0-.695l1.428-1.404a.508.508 0 0 1 .71 0l4.59 4.494a.13.13 0 0 0 .177 0l4.592-4.494a.506.506 0 0 1 .707 0l4.592 4.494a.13.13 0 0 0 .176 0l4.592-4.494a.508.508 0 0 1 .714 0z" fill="#3A99FB"/>
</svg>
