<svg width="22" height="22" viewBox="0 0 22 22" fill="none" xmlns="http://www.w3.org/2000/svg">
    <path d="M9.167 14.667V7.333C9.167 6.325 9.983 5.5 11 5.5h8.25v-.917a1.839 1.839 0 0 0-1.833-1.833H4.583A1.833 1.833 0 0 0 2.75 4.583v12.834c0 1.008.816 1.833 1.833 1.833h12.834a1.839 1.839 0 0 0 1.833-1.833V16.5H11a1.833 1.833 0 0 1-1.833-1.833zm2.75-7.334A.92.92 0 0 0 11 8.25v5.5a.92.92 0 0 0 .917.917h8.25V7.333h-8.25zm2.75 5.042c-.761 0-1.375-.614-1.375-1.375 0-.76.614-1.375 1.375-1.375.76 0 1.375.614 1.375 1.375 0 .76-.615 1.375-1.375 1.375z" fill="#FFFAF3"/>
</svg>
