<svg width="158" height="44" viewBox="0 0 158 44" fill="none" xmlns="http://www.w3.org/2000/svg">
    <path d="M58.673 25.93v1.986l-1.946 1.376c1.297.122 2.7.621 4.212 1.503l.807-1.058.556.405-3.254 3.475c-2.316-1.482-4.083-1.9-5.297-1.252l-.305-.264c.918-1.13 1.742-2.14 2.474-3.03l-.013-10.637c.093-1.53-.508-2.113-1.808-1.751l-.958.669-.334-.515 5.852-4.296v3.351c1.342-2.002 2.603-3.091 3.78-3.265 1.372-.14 2.685.303 3.941 1.326 1.257 1.024 1.957 2.52 2.106 4.49.15 1.97-.876 4.1-3.073 6.388-2.194 2.287-4.442 2.653-6.74 1.099zm-.014-8.565.014 4.185c.843 1.808 2.06 2.71 3.65 2.71 1.588 0 2.706-.498 3.35-1.494.644-.996.612-2.325-.097-3.99-.71-1.664-1.785-2.705-3.231-3.121-1.413-.407-2.64.163-3.686 1.71zM77.83 16.753c-1.002-1.528-2.06-1.903-3.171-1.125l-.653.793v5.769c.009 1.138.393 1.88 1.155 2.216.759.34 1.349.31 1.764-.09l.794-.874.361.277-1.597 2.016c-1.27 1.213-2.475 1.426-3.614.633-1.139-.793-1.683-1.745-1.627-2.856l.014-6.255c.084-1.178-.362-1.582-1.335-1.211l-1.14.82-.347-.432 5.574-3.934v3.033c1.16-1.587 2.136-2.481 2.933-2.691.796-.21 1.512-.096 2.142.34.63.437 1.065 1.033 1.306 1.793l-1.877 1.613.027.014a1.196 1.196 0 0 0-.195.14l-.207.18c-.15.13-.312.296-.489.5a1.998 1.998 0 0 0-.488 1.396c.019.524.224.938.62 1.239.393.3.892.424 1.502.368.606-.057 1.1-.533 1.48-1.433l.111.07c-.362.945-.85 1.48-1.467 1.611a2.194 2.194 0 0 1-1.69-.291c-.508-.325-.797-.755-.86-1.295-.066-.538.004-.996.207-1.374.16-.296.414-.614.766-.96z" fill="#F8EAD6"/>
    <path d="M90.584 13.896c.71.764 1.14 1.56 1.299 2.384l-7.855 5.546c.714 1.697 1.98 2.637 3.794 2.822 1.817.188 3.351-.875 4.603-3.182l.348.416c-1.353 2.8-2.732 4.397-4.137 4.797-1.403.4-2.73.378-3.975-.063-1.247-.44-2.233-1.193-2.953-2.257-.723-1.067-1.085-2.425-1.085-4.074 0-1.65.409-3.09 1.225-4.316.816-1.23 1.72-2.129 2.71-2.705a5.232 5.232 0 0 1 3.224-.687c1.159.115 2.092.556 2.802 1.32zm-5.584.64c-.669.106-1.182.5-1.543 1.175-.362.678-.522 1.498-.48 2.46.041.966.254 1.915.633 2.852l5.103-3.615c-.49-1.399-1.065-2.255-1.724-2.565-.658-.312-1.32-.413-1.989-.307zM100.768 15.684h-3.78c-.66-.093-1.196.19-1.614.847-.416.66-.47 1.603-.158 2.83.311 1.226 1.016 2.368 2.12 3.418 1.102 1.053 2.322 1.512 3.662 1.377 1.34-.134 2.305-1.004 2.899-2.608l.513.32c-1.046 2.595-2.377 4.16-3.988 4.692-1.614.533-3.098.325-4.45-.626-1.353-.95-2.26-2.167-2.718-3.65-.459-1.48-.425-2.774.1-3.877.522-1.103 1.26-2.16 2.216-3.175a14.838 14.838 0 0 1 3.1-2.537l4.866-.014-2.28 3.003c-.224.194-.446.481-.669.86a2 2 0 0 0-.244 1.458c.106.511.379.88.82 1.105.441.229.956.262 1.55.107.592-.159.997-.714 1.211-1.67l.125.043c-.197.99-.583 1.604-1.169 1.841-.583.235-1.154.24-1.71.014-.556-.226-.913-.599-1.071-1.119-.156-.52-.172-.983-.041-1.39.12-.359.357-.777.71-1.249zM109.914 22.19c.009 1.138.326 1.88.947 2.216.621.34 1.139.31 1.557-.09l.791-.875.361.278-1.6 2.016c-1.288 1.225-2.426 1.417-3.418.583-.992-.834-1.458-1.77-1.406-2.807l.016-6.257c.083-1.175-.362-1.58-1.336-1.209l-1.138.82-.346-.43 5.38-3.935.194.21v9.48h-.002zm-2.015-16.67c.795.574 1.38 1.49 1.751 2.739l1.292-1.085.292.459-4.933 4.017-.375-.361 1.209-1.055c-.326-1.114-.913-2.027-1.767-2.741l2.531-1.973zM121.453 12.674c1.019.133 2.051.62 3.098 1.453 1.048.834 1.703 1.98 1.968 3.435.264 1.453.223 2.687-.125 3.697-.345 1.01-.836 1.886-1.466 2.625-.631.744-1.51 1.483-2.642 2.226-1.129.741-2.352 1.003-3.669.784-1.315-.217-2.468-.86-3.453-1.932-.988-1.069-1.589-2.221-1.808-3.453-.219-1.233-.156-2.35.188-3.355.343-1.006 1.032-2.052 2.07-3.134 1.039-1.087 2.017-1.78 2.935-2.086.915-.31 1.882-.393 2.904-.26zm-3.797 2.287c-.917.287-1.566 1.062-1.945 2.32-.382 1.262-.052 2.715.987 4.36 1.037 1.645 2.201 2.634 3.489 2.969 1.288.334 2.246.289 2.872-.134.624-.42.997-1.168 1.112-2.237.115-1.07-.156-2.4-.814-3.99-.657-1.589-1.543-2.608-2.655-3.05-1.114-.448-2.128-.525-3.046-.238zM138.62 23.747c-.334 1.084-1.064 1.918-2.196 2.501-1.428.761-2.852.705-4.269-.165-1.417-.87-2.094-2.226-2.029-4.058l-.027-3.435c.065-1.148-.072-1.864-.411-2.149-.339-.282-.728-.307-1.175-.075l-.999.791-.362-.388 5.88-4.24v6.479c-.129 3.448.626 5.364 2.266 5.755 1.521.36 2.563-.33 3.128-2.072l.013-4.655c.039-.788-.113-1.276-.445-1.466-.332-.19-.684-.192-1.055-.007l-1.001.667-.235-.513 5.672-4.185v9.951c.056 1.225.535 2.032 1.439 2.427.902.393 1.602-.074 2.093-1.412l.345.016c-.176 1.177-.773 2.117-1.792 2.822-1.019.703-2.124.62-3.31-.25-.78-.58-1.29-1.359-1.53-2.34zM155.969 12.64l-2.251 2.502-4.797-.014c-1.121.825-.339 1.56 2.348 2.203 2.689.644 4.349 1.245 4.982 1.808.637.56.974 1.207 1.015 1.939.043.732-.14 1.507-.547 2.33-.409.818-1.13 1.66-2.163 2.524-1.032.86-2.377 1.15-4.031.867-1.654-.284-2.919-.804-3.794-1.563-.877-.76-1.324-1.55-1.342-2.37-.018-.82.71-1.745 2.183-2.773l.375.332c-.594.382-.843.84-.75 1.376.092.538.849 1.157 2.273 1.858 1.421.7 2.671 1.014 3.746.944 1.074-.068 1.702-.389 1.883-.958.181-.57.059-1.073-.362-1.507-.422-.436-1.267-.823-2.535-1.162a20.371 20.371 0 0 1-3.756-1.417c-1.231-.605-1.699-1.54-1.403-2.8.296-1.26 1.297-2.632 3.003-4.114h5.491c.122-.131.246-.283.375-.459.326-.436.461-.915.412-1.44-.052-.521-.285-.917-.696-1.186-.412-.27-.92-.359-1.523-.27-.602.087-1.065.594-1.39 1.52l-.111-.07c.296-.956.746-1.516 1.356-1.688.606-.172 1.175-.113 1.701.174.529.287.841.696.94 1.23.098.53.057.998-.117 1.396a4.235 4.235 0 0 1-.515.788z" fill="#F8EAD6"/>
    <path d="M40.232 31.983c-.012-.357.004-.719-.034-1.073a12.177 12.177 0 0 0-.732-3.02c-.274-.707-.608-1.393-1.074-2.006-.06-.081-.13-.203-.257-.138-.045.025-.077.147-.059.206.21.644-.009 1.245-.228 1.823-.27.717-.509 1.48-1.288 1.858-.3.502-.816.698-1.333.734-1.34.093-2.662-.065-3.797-.86-1.22-.855-2.04-2.014-2.41-3.48-.105-.41-.159-.866-.633-1.21 1.658-.045 3.251-.45 4.795.148 1.566.607 2.55 1.782 2.994 3.402.065.233.124.466.07.733-.037.185-.093.54.316.533-.005-.023-.005-.047-.005-.07 0-.185.08-.36.043-.57a8.792 8.792 0 0 0-.445-1.651c-.26-.703-.707-1.25-1.245-1.715-.85-.737-1.832-1.232-3.023-1.374.352-.192.642-.34.922-.504.775-.461 1.566-.9 1.934-1.815.086-.212.19-.46.425-.603.106-.066.002-.17-.018-.25.031-.035.059-.064.09-.096.206-.47.542-.895.452-1.46-.018-.117.018-.248.05-.368.253-1.008.43-2.036.784-3.014.05-.138.117-.337-.095-.396-.167-.045-.249.122-.282.253-.22.773-.473 1.535-.803 2.27-.171.383-.219.815-.424 1.194-.177.324-.617.441-.667.86-.005.022-.04.044-.066.065-.483.431-.946.89-1.486 1.256.01.014.02.03.029.04-.01-.01-.02-.026-.032-.04-.092.061-.19.122-.282.185-.698.344-1.471.443-2.221.662.167.23.4.16.605.19.407.054.601.353.63.708.019.241-.216.463-.44.47-.76.024-1.453.318-2.18.451-1.042.192-1.905.75-2.81 1.216-.454.237-.887.594-1.242.96-.8.819-1.532 1.707-2.054 2.757-.158.317-.296.6-.27.952-.218.002-.435.002-.654.002-.312-.134-.018-.468-.238-.671-.336-.31-.483-.76-.714-1.148a8.13 8.13 0 0 0-1.64-1.968 9.97 9.97 0 0 0-2.303-1.478c-1.127-.538-2.293-.852-3.51-1.02-.383-.051-.693-.137-.776-.515-.075-.323.284-.637.711-.709.188-.032.416.027.556-.296-.345.215-.553-.059-.816-.108-1.455-.285-2.641-.983-3.34-2.355-.02-.038-.054-.097-.085-.1-.472-.038-.603-.445-.687-.768-.185-.696-.54-1.329-.714-2.027-.095-.375-.249-.736-.378-1.102-.045-.131-.124-.238-.273-.177-.131.052-.097.181-.068.287.19.671.439 1.331.558 2.016.109.62.443 1.227.19 1.891-.027.07.005.192.109.134.223-.131.147.065.158.135.083.545.312 1.024.624 1.473.187.272.305.597.51.85.649.798 1.573 1.216 2.484 1.7-.796.157-1.533.356-2.179.777-.628.409-1.258.84-1.645 1.498-.443.755-.786 1.559-.904 2.438a1.29 1.29 0 0 0-.006.373c.02.117.056.271.205.278.195.009.156-.165.156-.278-.011-.423.068-.83.19-1.232.337-1.118.985-2.05 1.961-2.65.956-.59 2.052-.931 3.21-.784.815.101 1.646.015 2.546.212-.53.267-.531.732-.642 1.12-.65 2.236-1.97 3.79-4.336 4.276-2.005.411-3.162-.03-4.097-1.593-.438-.734-.696-1.543-.696-2.407-.002-.176.192-.424.004-.51-.219-.1-.235.285-.433.343-.03.012-.039.082-.061.122-1.024 1.745-1.584 3.618-1.598 5.647-.002.136.04.285-.09.391.092.156.079.328.097.5.045.46.083.924.19 1.38a9.607 9.607 0 0 0 1.4 3.182 7.26 7.26 0 0 0 2.694 2.431c.454.24.897.5 1.37.696.964.402 1.988.66 3.023.717.705.038 1.441.253 2.142-.068.572-.17 1.15-.31 1.693-.563.257-.061.494-.172.732-.294.655-.336 1.206-.825 1.807-1.233.56-.382 1.076-.866 1.32-1.544.047-.135.188-.314-.005-.418-.185-.1-.255.106-.354.217-.705.8-1.487 1.498-2.529 1.84-.65.212-1.245-.218-1.256-.918.093-.199-.002-.427.404-.518.728-.162.918.35 1.295.708-.108-.405-.043-.839-.255-1.234-.445-.84-1.25-1.198-2.08-1.45a17.701 17.701 0 0 0-1.626-.421c-.039-.075-.109-.093-.185-.097-.552-.391-.382-.967-.38-1.5.068-.084.183-.166.194-.258.05-.375.319-.33.56-.3.28.033.498.162.584.465.04.149.067.266-.068.375-.136.108-.222.093-.355-.034-.233-.224-.328-.054-.343.178-.012.181.05.396.203.441.172.054.373.115.579-.004.409-.24.55-.547.402-1.223-.095-.431-.484-.596-.877-.66a2.87 2.87 0 0 0-.89-.004c-.6.095-1.02.436-1.214 1.023-.515.626-.205 1.255 0 1.883l.19.185c.036.09.097.151.185.19-.011.253-.23.479-.095.75.005.393.055.664.174.843.12.178.308.267.581.287.226.341.57.149.859.178.269.03.549-.079.486.41-.032.255.058.58.255.822.009.188.133.291.283.377.12.172.232.35.47.375.027.21-.075.299-.28.28-.5.213-.997.064-1.499 0-1.426-.187-2.506-.899-3.317-2.078-.325-.473-.601-.986-1.02-1.392-.3-.292-.659-.454-1.052-.314-.321.113-.527.054-.728-.195-.086-.106-.21-.18-.323-.266-.662-.515-1.498-.755-2.108-1.367-.387-.391-.73-1.144-.617-1.63 1.478.89 3.055 1.377 4.797 1.123.576-.085 1.162-.192 1.657-.546.06-.046.149-.061.14-.159-.01-.092-.084-.126-.165-.126-.81-.005-1.406-.443-1.978-.945-.508-.447-.838-.987-.92-1.667-.017-.147.028-.215.184-.154.886.332 1.753.28 2.68.063 1.487-.345 2.59-1.154 3.437-2.37.24-.343.456-.703.684-1.055-.081.583.007 1.14.064 1.69.104 1.021.354 2.011.838 2.928.032.192.093.371.283.47.103.263.126.563.375.753.004.079.022.147.095.187.409.56.82 1.117 1.412 1.505.135.152.266.305.406.452 1.067 1.123 2.326 2.072 3.17 3.401-.11.456.053 1.01-.47 1.317-.553-.128-.704-.524-.354-.96.127-.16.04-.273-.08-.352-.153-.095-.306-.039-.392.113-.05.09-.014.232-.122.291-.644.357-.66.974-.642 1.586.02.685.436 1.286.908 1.282.382-.005.398.176.371.447-.08.832.183 1.295.954 1.674l.244-1.01c.183.335.097.728.343 1.049.357-.37.922-.556.847-1.207-.036-.25.238-.5 0-.75l.003-.19c.768-.002 1.062-.26 1.245-.953.264-.995-.156-1.695-.88-2.296-.078-.07-.15-.115-.236-.025-.066.068-.147.14-.084.242.04.065.11.11.158.17.17.207.072.605-.212.788-.253.16-.436.147-.588-.181-.203-.44-.194-.956.09-1.335.084-.111.15-.238.22-.357.542-.785 1.324-1.338 1.97-2.023 1.112-1.175 2.488-2.129 3.112-3.71.31-.531.558-1.085.66-1.693.47-1.055.436-2.174.377-3.398 1.613 2.858 3.819 4.26 7.09 3.45-.04.131-.094.26-.121.393-.21 1.042-1.521 2.253-2.572 2.373-.145.018-.355-.084-.409.115-.054.2.224.17.3.305.032.06.125.102.2.116.953.192 1.877.535 2.896.325 1.047-.217 2.075-.43 2.97-1.048l.192-.183c.031-.003.06-.005.09-.003.068.642-.154 1.198-.592 1.643-.822.836-2.052 1.107-2.847 1.99-.025.03-.088.021-.136.03-.49-.422-1.252-.02-1.672.603-.418.615-.795 1.277-1.313 1.797-.53.529-1.18.972-1.957 1.118-.727.136-1.45.391-2.205.165-.1-.029-.24.007-.267-.14-.022-.115.086-.153.159-.208.58-.436.84-1.03.836-1.742 0-.165.058-.18.183-.18.219 0 .442.022.66-.007.501-.068.99-.181 1.181-.744.113-.33.143-.673.025-1.003-.077-.215-.004-.37.122-.515.533-.622.669-1.295.26-2.032-.583-1.048-1.295-1.236-2.35-.983-.732.174-.84.803-.646 1.449.092.3.38.431.702.45.204.008.32-.09.394-.27.058-.135.095-.275-.02-.395-.152-.158-.247.04-.367.072-.28.08-.382-.09-.386-.32-.005-.317.47-.644.795-.622.488.034.531.463.647.757.167.43-.132 1.134-.475 1.315-.488.262-1.024.387-1.56.486-1.391.264-2.324 1.141-2.593 2.488-.023.117.018.208.192.339-.131-.384.221-.391.337-.592.255-.454.686-.201 1.012-.158.23.03.215.375.212.612l-.004.328c-.314.187-.572.47-.94.567-.312-.133-.647-.199-.947-.377-.757-.446-1.444-.963-1.968-1.68-.068-.09-.152-.18-.27-.128-.144.06-.051.178-.04.28.075.608.545.947.909 1.358.366.411.888.612 1.312.956.488.393 1.024.757 1.661.908l.38.183c.504.159.999.385 1.512.455.942.13 1.89.031 2.824-.131a10.474 10.474 0 0 0 4.6-2.016l.473-.375c.07-.118.102-.278.282-.283.188-.219.376-.438.56-.657-.013-.145.134-.181.193-.28l.75-1.223c.635-1.338 1.017-2.732.936-4.23zm-32.083.072c.545.644 1.2 1.123 2.077 1.483-1.865.497-3.498.117-5.067-.665-.298-.151-.501-.458-.86-.54-.197-.047-.125-.276-.136-.411-.113-1.437.479-3.85 1.3-5.26.083.429.153.81.255 1.181.273.985.856 1.715 1.663 2.3.185.134.194.267.212.505.036.494.204.992.556 1.407zm12.225 3.97c-.473-.336-.75-.847-1.105-1.283-.348-.43-.646-.9-.967-1.349l-.19-.375c-.25-.649-.542-1.286-.658-1.977-.065-.4-.088-.798-.192-1.2-.117-.47.007-1.008.05-1.514.025-.274.122-.543-.059-.805-.192.134-.192.34-.253.511-.129.348-.37.52-.727.567-.367.05-.504-.224-.63-.463-.268-.513-.254-1.09-.184-1.627.056-.423.217-.836.269-1.27.023-.172.054-.291.341-.217 1.38.373 2.529 1.155 3.498 2.136.732.739 1.378 1.617 1.534 2.725.037.253-.034.382-.305.409-.517.05-.978-.195-1.245-.692-.043-.081-.074-.205-.183-.185-.129.027-.133.16-.126.271.038.551.2 1.055.66 1.392.262.194.212.31.002.48-.389.313-.588.722-.57 1.226.005.095 0 .204.098.249.124.054.142-.075.203-.138.393-.416.933-.543 1.45-.694.31-.09.18.247.175.308-.043.933-.152 1.86-.504 2.736-.052.133-.118.258-.104.404-.088.125-.186.249-.278.376zm2.759.773c-.226.238-.436.488-.502.825-.522.102-.341.696-.657.94.018-.63-.534-.935-.8-1.403a1.748 1.748 0 0 0-.31-.402c-.24-.222-.145-.48-.117-.733l.194-.375c.366-.497.427-1.105.529-1.672.088-.495.122-1.019.108-1.53-.007-.284.097-.386.328-.361.226.022.563-.095.578.325.025.742.01 1.485.23 2.208.145.474.245.967.516 1.387.203.315.136.545-.097.791zm5.423-9.14c-.047.163-.081.339-.165.483-.138.238-.267.511-.633.46-.357-.05-.596-.224-.723-.575-.06-.167-.054-.377-.296-.529-.162.895.229 1.754.034 2.606-.002.032-.002.063-.002.095.014.011.025.025.04.036l.066.061c-.027.004-.022.027-.018.047a.31.31 0 0 0-.18.043c-.102.439-.053.906-.28 1.316a7.666 7.666 0 0 1-1.513 2.853c-.302.366-.594.75-.89 1.128-.291.373-.36.393-.565-.038-.269-.565-.407-1.169-.526-1.783-.107-.538-.055-1.08-.107-1.636.165.011.33.027.493.038.377.172.777.308 1.091.597.07.068.075.24.226.171.116-.054.095-.185.095-.293.014-.647-.363-1.058-.845-1.415.5-.375.877-.82.906-1.494.01-.19-.006-.32-.147-.454-.388.84-1.17 1.164-1.703.728.275-1.63 1.242-2.77 2.526-3.749.761-.58 1.557-1.017 2.465-1.295.208-.063.384-.052.4.14.061.823.502 1.607.251 2.459zm11.054 4.723c-.185.043-.339.23-.508.352-1.62.947-3.335 1.284-5.204.823.703-.4 1.421-.75 1.891-1.417.36-.509.81-.99.624-1.702-.038-.151.11-.178.19-.23.865-.622 1.493-1.406 1.746-2.456.084-.346.15-.694.238-1.092.998 1.666 1.197 3.48 1.272 5.326-.005.179.016.337-.249.396z" fill="#725DB2"/>
    <path d="M44.105 25.373c-.172-.187-.086-.415-.11-.628l.001-.187c.17-.127-.033-.253-.004-.378.066-.82-.203-1.59-.339-2.381-.12-.707-.51-1.302-.789-1.94-.21-.544-.58-1.002-.908-1.463-.31-.434-.633-.92-1.157-1.173-.23-.348-.572-.567-.913-.775-.938-.576-1.982-.863-3.041-1.105-.902-.154-1.804-.235-2.721-.15-.567.053-1.064.328-1.613.435.858-.757 1.604-1.61 2.155-2.62.095-.173.215-.171.346-.101.355.185.752.19 1.128.28.82.204 1.566 0 2.268-.422.06-.037.095-.152.179-.075a.61.61 0 0 1 .183.267c.036.13-.104.133-.185.151-.333.077-.579.296-.855.475-.451.296-.736.754-1.1 1.134-.115.122-.14.312.027.404.158.09.228-.022.29-.185.08-.212.227-.402.354-.599.339-.53 1.385-.983 1.998-.872.117.02.208.072.278.158.196.238.237.466-.016.699-.228.205-.445.42-.757.142-.084-.075-.147-.174-.271-.082-.077.055-.068.123-.041.206.203.59 1.247 1.13 1.78.909.832-.342 1.359-1.44.992-1.996-.305-.458-.13-.718.238-.974.05-.036.108-.065.153-.106.369-.334.563-1.19.066-1.573-.459-.35-.881-.413-1.396-.086-.132.082-.355.324-.448.02-.097-.316-.337-.48-.535-.686-.527-.542-1.566-.497-2.152.075-.336.332-.298 1.554.066 1.947.052.061.108.122.197.084.121-.054.074-.142.05-.235-.032-.124-.247-.188-.114-.362.181-.235.687-.269.954-.058.26.203.264.537.02.822-.233.267-.483.389-.879.389-.431.002-.865.081-1.3-.002-.993-.193-1.843-.728-2.731-1.17l-.095-.096c-.362-.217-.696-.486-1.13-.563-2.831-1.358-5.559-1.032-8.198.588.888-1.1 1.164-2.296.843-3.588-.316-1.282-1.085-2.29-2.224-3.044 1.602-.33 3.417.538 4.316 1.631.073.09.12.204.253.127.127-.072.08-.17.023-.278a1.98 1.98 0 0 1-.183-.477c-.244-1.066-.85-1.92-1.534-2.743-.703-.84-1.611-1.415-2.52-1.99.253-.008.49-.14.75-.098.95.115 1.84.427 2.728.757.174.172.404.192.623.255.33.093.767.043.911.46.129.365.427.467.726.598.318.201.63.074.942-.014a3.047 3.047 0 0 1 2.088.172c1.134.515 1.864 1.467 2.522 2.477.002.029.004.06.004.09.138.547.138.547-.427.472-.045-.004-.093 0-.138 0-.262-.004-.56-.058-.741.158-.203.242-.3.095-.41-.051-.203-.27-.41-.532-.731-.674-1.001-.687-1.593-.633-2.165.19-.479-.025-.97.013-1.27.422-.31.416-.422.909-.312 1.447.109.533.468.895.995.93.508.035.962-.282.962-.673 0-.17-.038-.336-.244-.32-.142.013-.248.06-.221.3.031.29-.152.479-.516.373-.334-.097-.472-.35-.535-.64-.082-.366.314-.354.483-.524.382-.018.757.007 1.128.095.194.15.452.262.572.456.3.489.71.86 1.123 1.236.224.116.39.333.657.378.965.492 2.226.052 2.212-.793-.06.031-.11.072-.164.088-.22.059-.46.178-.622-.09-.144-.238-.284-.484-.12-.78.147-.26.353-.321.626-.222.07.025.156.005.233.007.032.002.061.002.093.002.068.109.176.09.28.098.151.339.425.675.434 1.016.03 1.006.129 2.043-.432 2.967-.095.156-.074.285.048.364.147.1.237-.056.282-.156.097-.21.17-.434.233-.657a8.092 8.092 0 0 0 .174-3.654c-.136-.755-.258-1.541-.83-2.142-.017-.455-.334-.766-.558-1.114-.587-.911-1.238-1.77-2.176-2.364l-.095-.095c-.212-.217-.488-.334-.752-.468-.068-.108-.178-.09-.285-.092-.031 0-.06-.003-.092-.003-.052-.056-.093-.135-.156-.167-1.25-.594-2.563-.983-3.973-.96-.11.009-.221.013-.336.013-.523 0-1.049-.065-1.548.174l-.28.098c-.32-.025-.642-.055-.945.09a2.165 2.165 0 0 0-.509.057c-.734.194-1.47.155-2.22.05C19.973.54 18.94.245 17.862.227c-1-.02-2.008-.095-2.95.355-.032.002-.062.004-.093.004-.348-.02-.644.136-.94.283l-.473.28c-.406.084-.761.296-1.13.472-.623.362-1.163.839-1.638 1.37-.311.348-.718.653-.81 1.163a.195.195 0 0 0-.193.125c-.032.07-.05.151-.088.21-1.24 1.81-1.645 3.803-1.306 5.958.077.495.205.974.388 1.438.05.126.145.287.31.214.192-.088.147-.25.032-.388-.136-.163-.181-.364-.242-.554-.242-.761-.197-1.55-.206-2.327-.004-.53.488-1.114.929-1.196.26-.088.531-.14.705.136.185.287.15.592-.061.86-.246.313-.538.148-.83 0 .084.46.764 1.02 1.264 1.036.237.009.535.185.712-.15a.622.622 0 0 0 .373-.097c.126-.092.253-.185.38-.28.255-.145.487-.316.657-.563.343-.24.537-.598.752-.94.269-.09.45-.354.753-.377.063 0 .126 0 .19-.002h.372c.24-.04.42.086.601.21.226.156.147.343.064.54-.125.292-.36.459-.651.445-.199-.011-.353-.192-.294-.438.057-.24-.12-.262-.267-.274-.207-.013-.214.15-.198.294.027.244.054.463.348.592.427.188.867.213 1.181-.065.5-.441.6-1.074.378-1.693-.17-.479-.436-.933-1.067-.922h-.465c-.039-.027-.09-.045-.111-.083-.373-.615-.588-.705-1.25-.482-.61.208-1.19.461-1.545 1.053-.05.084-.156.27-.274.152-.44-.452-.94-.251-1.432-.17a.45.45 0 0 1-.093-.269c0-.138.07-.27.154-.404.196-.31.4-.617.599-.927l.282-.377a.324.324 0 0 0 .19-.188c.038-.024.083-.045.115-.074 1.035-.985 2.21-1.417 3.634-.985.533.16 1.005-.097 1.362-.606.16-.23.335-.443.687-.454.228-.005.497-.05.694-.23.838-.337 1.672-.69 2.58-.816.393-.057.732-.039 1.026.14a8.651 8.651 0 0 0-2.906 2.472 6.876 6.876 0 0 0-1.222 2.598c-.03.127-.203.244-.005.346.159.082.197-.09.274-.183.558-.664 1.288-1.107 2.079-1.403.61-.228 1.276-.296 1.94-.244.06.007.154-.007.177.027.093.131-.059.14-.12.18-.628.435-1.075 1.02-1.496 1.648-.998 1.5-.786 3.615.37 4.831-.57-.142-1.007-.44-1.475-.666-.05-.109-.138-.156-.248-.195-.983-.357-2.005-.517-3.049-.553-.433.006-.856.104-1.28.158-1.284.16-2.425.66-3.492 1.338-1.3.829-2.66 1.38-4.241 1.2-.346-.041-.825-.59-.77-.927a.534.534 0 0 1 .381-.436c.276-.088.536.013.748.185.176.143-.061.233-.093.353-.025.09-.083.18.034.241.11.055.179-.024.226-.108.197-.362.366-.748.276-1.157-.059-.278.002-.63-.298-.809-1.07-.635-1.693-.671-2.502.475-.217.31-.357.305-.624.128-.465-.305-.874-.253-1.276.068-.382.307-.427.687-.224 1.286.118.348.434.479.66.698.18.172.178.262.059.457-.208.339-.26.689-.125 1.105.201.623.577 1.048 1.191 1.18.61.13 1.198-.24 1.541-.85.054-.095.147-.181.027-.283-.122-.104-.196-.014-.27.075-.186.226-.405.153-.584.018-.21-.156-.418-.35-.31-.665.087-.244.267-.35.545-.357.904-.02 1.81.552 2.199 1.449.072.17.12.316.31.208.137-.077.135-.296.027-.37-.32-.22-.432-.606-.75-.83-.407-.285-.733-.683-1.239-.818-.138-.039-.221-.133-.09-.278.07-.077.079-.215.273-.082.725.5 1.541.633 2.398.432.33-.081.68-.077.992-.255.14-.084.268-.073.38.117.553.96 1.226 1.826 2.094 2.547-.054.018-.086.038-.11.034a.382.382 0 0 1-.132-.039c-.714-.312-1.46-.49-2.235-.409-.786.08-1.595.016-2.352.29-.673.246-1.378.402-2.022.723-1.042.517-1.849 1.328-2.556 2.212-.292.366-.597.786-.712 1.279l-.28.377c-.05.226-.316.321-.362.529-.237 1.073-.644 2.115-.673 3.23.014.745-.15 1.486.077 2.234.1.328-.018.712.113 1.057.167.726.377 1.438.657 2.131.473 1.18.965 2.335 2.07 3.096.3.206.534.389.755-.056a.949.949 0 0 0-.244-.294.654.654 0 0 0-.377-.136c.415-.221.427-.228.124-.553-.328-.355-.513-.776-.628-1.234-.159-.628-.333-1.252-.477-1.885-.054-.233-.326-.409-.185-.691.21.068.352.063.476-.185.244-.477.113-.936-.004-1.397-.19-.732-.714-1.306-.974-2.011-.088-.242.12-.594-.246-.735v-.185c.076-.011.174-.031.162-.124-.063-.438.152-.852.116-1.288.246-.373.37-.791.47-1.22.038-.046.088-.09.113-.145.277-.583.39-.601.915-.208.162.124.158.213.092.384-.13.335-.262.676-.318 1.026-.075.466-.095.963.162 1.38.204.335.511.85.913.627.527-.294.527.117.696.323.111.131.195.273.344.375.53.37 1.548.375 2.296-.36.52-.51.517-.731.314-1.434-.097-.332-.4-.402-.728-.373-.264.02-.418.129-.45.44.308-.12.579-.438.843-.022.165.262.084 1.006-.171 1.125-.328.154-.64.018-.902-.205-.068-.059-.12-.145-.174-.222-.391-.551-.504-1.184-.565-1.844-.063-.682.21-1.324.194-1.997v-.28c0-.208-.241-.337-.187-.565-.143-.222-.278-.448-.434-.66-.059-.08-.147-.208-.262-.127-.1.068-.059.201-.014.3.07.16.163.306.147.487-.002.124-.004.25-.004.375-.181.108-.337.271-.563.285-.26.027-.436-.07-.58-.301a1.268 1.268 0 0 1 .284-1.7c.343-.273.732-.467 1.132-.637 1.119-.479 2.262-.879 3.496-.933 1.105-.045 2.167.093 3.145.667.344.203.314.393.093.642-.194.217-.391.433-.59.648-.49.538-.994 1.053-1.835.988.048.305.305.361.51.413.52.136 1.038.133 1.52-.167.12-.075.25-.215.42-.072.144.12.065.248.043.384-.025.151-.046.314.056.454l.947 1.308c0-.327.004-.558-.002-.784-.023-.813-.005-1.62.375-2.368.185-.36.343-.38.603-.065.19.226.346.48.533.707.956 1.134 1.388 2.438 1.34 3.918-.02.592-.004 1.186-.144 1.77-.032.128-.014.216.106.266.12.05.215-.002.28-.106a.814.814 0 0 0 .131-.396c.032-.492.04-.994.043-1.482.005-.343.066-.75-.138-1.09a4.863 4.863 0 0 1-.004-.184c-.068-.83-.459-1.54-.805-2.271-.312-.656-.888-1.06-1.369-1.555-.063-.063-.174-.129-.127-.228.07-.145.19-.052.283-.014.436.174.886.276 1.351.353 1.858.312 3.345-.454 4.59-1.695.772-.768 1.312-1.742 1.62-2.809.106-.37.248-.743.203-1.148-.014-.124-.05-.214-.19-.214-.086 0-.17.029-.144.133.137.556-.2.332-.441.271-.386-.092-.678-.343-.886-.653-.845-1.243-.8-2.567-.257-3.902.33-.814.87-1.444 1.615-1.955.407-.278.74-.389 1.112-.136 1.74 1.178 2.474 2.97 2.007 4.927-.201.831-.658 1.511-1.548 1.778-.145.043-.285.083-.31-.138-.016-.12.177-.353-.14-.316-.228.03-.16.248-.149.384.052.657.291 1.26.56 1.853.56 1.227 1.365 2.246 2.529 2.95 1.491.905 3.055.916 4.655.326.149-.054.3-.16.346.107-.75.612-1.397 1.301-1.815 2.198-.59 1.275-.73 2.608-.633 3.986.02.262-.054.533.06.787.065.149.14.307.34.241.188-.06.116-.205.09-.35-.185-1.096-.198-2.205.014-3.294.237-1.216 1.062-2.131 1.799-3.074.086-.11.235-.278.431-.117.624 1.023.446 2.174.473 3.33.368-.293.5-.7.79-.98.22-.215.303-.47.22-.764-.11-.402.122-.398.382-.316.237.077.454.212.694.284.53.156 1.217-.09 1.425-.521-.409.099-.743-.041-1.066-.24-.638-.391-1.008-1.037-1.514-1.552-.129-.13-.072-.21.054-.299a4.44 4.44 0 0 1 1.593-.696c.965-.214 1.919-.007 2.879-.034.264.093.526.19.793.278 1.096.353 2.194.696 3.064 1.51.052.44.312.879.002 1.317-.257.398-.553.488-.928.285-.344-.183-.412-.515-.206-.94.066-.131.17-.269.032-.418-.665.418-1.024 1.365-.85 2.19.066.316.12.632.165.953-.002.312-.005.624-.005.936-.15.133-.067.311-.092.47-.188.377-.373.754-.56 1.132-.748.483-1.142.35-1.248-.427-.032-.244.036-.461.244-.62.199-.151.346-.022.502.086.059.039.135.09.212-.009-.086-.407-.409-.348-.7-.348-.314 0-.434.23-.502.477-.217.782-.03 1.175.737 1.59a.286.286 0 0 0 .282.188c.131.159.312.073.47.095.574.183 1.239-.117 1.577-.734.075-.136.204-.353.276-.285.255.247.522.215.741.052.21-.16.47-.318.515-.63.093-.111.256-.204.095-.378-.052-.124-.088-.248-.002-.375.19-.556-.138-1.012-.282-1.505-.177-.413.176-.483.409-.628.158-.095.35-.174.44.04.265.624.56 1.246.732 1.897.184.702.174 1.441.111 2.169-.4.696-.886 1.354-1.087 2.135-.106.414-.176.85.09 1.3.152.253.491.018.527.325-.06.095-.122.19-.185.285-.095.241-.22.481-.274.734-.235 1.05-.3 2.165-1.229 2.913.131.16.33.063.454.332-.323-.23-.34.097-.388.11-.473.15-.077.421-.032.496.131.219.255-.041.364-.1.203-.108.386-.264.558-.42 1.218-1.119 1.607-2.664 2.154-4.135.284-.77.067-1.645.517-2.378a.383.383 0 0 0-.061-.122zM21.36 12.245c-.388.194-.257.506-.363.741-.335.723-.665 1.46-1.191 2.054-1.062 1.19-2.362 1.9-4.031 1.778a9.913 9.913 0 0 1-1.553-.221c-.298-.068-.43-.167-.158-.459.38-.404.633-.913 1.076-1.279.325-.264.653-.472 1.062-.544.216-.04.23-.109.076-.265-.451-.44-1.039-.542-1.595-.2-.364.223-.438.09-.427-.252a.685.685 0 0 0-.11-.397c-.159-.253-.188-.735-.527-.667-.283.059-.271.554-.267.834.011.832-.544 1.417-.813 2.122-.068.18-.15.151-.312.081-.827-.364-1.397-.987-1.9-1.71-.21-.303-.434-.606-.667-.898-.061-.079-.208-.135-.115-.266.07-.102.194-.093.302-.059.172.052.373.183.292-.188-.007-.027.26-.149.409-.176.694-.126 1.3-.54 1.99-.64.814-.117 1.641-.255 2.466-.035.723.192 1.478.302 2.158.592.432.183.929.375 1.218.822.047.072.12.167.228.115.104-.05.093-.174.061-.246-.138-.334-.043-.637.068-.954.147-.429.343-.53.76-.307.544.294 1.131.466 1.863.624zm-.235-7.71c-1.394-.373-2.467.438-3.667 1.014.104-.6.398-1.062.72-1.477.627-.812 1.289-1.589 2.152-2.185.506-.353 1.091-.522 1.63-.8.289-.15.474.266.768.25 1.81.889 3.046 2.305 3.807 4.18-.398-.196-.798-.386-1.19-.589-.724-.373-1.458-.556-2.294-.42-.628.101-1.284.022-1.926.027zM31.573 15.63c-.326-.723-.825-1.365-.877-2.212-.016-.285.047-.775-.343-.832-.346-.054-.355.405-.477.653-.201.407-.43.554-.845.509-.613-.299-1.022.092-1.496.492.8.045 1.304.58 1.866 1.015.174.345.332.7.662.935.147.224-.002.312-.183.364-1.252.368-2.497.463-3.724-.104-1.037-.479-1.938-1.098-2.44-2.19-.117-.255-.267-.528-.522-.702-.034-.158-.052-.328-.08-.493a1.273 1.273 0 0 0-.148-.45c-.229-.372-.039-.4.235-.474.5-.138.97-.339 1.435-.565.34-.165.528-.014.669.343.169.432.153.839.004 1.234.077.095.14.08.183.027.597-.693 1.394-1.014 2.25-1.247.844-.228 1.686-.502 2.568-.43.547.046 1.107.078 1.636.267h.095l.282.095c.255.172.667.061.807.452.034.097.122.03.196.011.29-.063.294-.05.538.283.077.102.195.066.292.027.12-.05.237-.106.33.034.106.158-.014.271-.102.37-.66.733-1.144 1.625-1.968 2.21-.26.163-.504.378-.843.378z" fill="#725DB2"/>
    <path d="M22.78 10.116c-.087.113-.189.278-.374.233-.181-.045-.229-.178-.206-.36.023-.194-.12-.11-.22-.124-.16-.018-.184.016-.137.172.04.131-.034.249-.158.303-.12.05-.199-.054-.283-.124-.388-.33-.648-.963-.648-1.591.086-.556.176-1.116.601-1.53.14-.136.3-.576.572-.093.015.028.156.032.174.005.339-.506.515-.01.632.147.696.938.678 2.144.048 2.962zM12.869 25.984c-.235.617-.37 1.276-.87 1.771-.518.51-1.076.929-1.803 1.087-.19.043-.267-.011-.27-.196v-.42c.184-.75.548-1.375 1.223-1.786.22-.095.412-.255.658-.285.271-.117.551-.187.847-.19.048-.078.093-.185.208-.14.068.028.032.098.007.159zM34.118 28.919c-1.706-.382-2.621-1.453-2.958-3.078 1.684.348 3.01 1.033 2.958 3.078zM20.808 24.203v.994l-.974.69c.649.058 1.351.31 2.106.75l.402-.529.278.201-1.627 1.738c-1.159-.741-2.042-.95-2.648-.626l-.154-.133 1.236-1.515-.004-5.317c.047-.763-.255-1.055-.902-.874l-.479.332-.167-.257 2.926-2.15v1.677c.671-1 1.302-1.545 1.89-1.633.686-.07 1.342.151 1.97.664.628.513.978 1.259 1.053 2.246.074.983-.439 2.05-1.537 3.193-1.096 1.143-2.219 1.326-3.369.55zm-.007-4.282.007 2.093c.423.901 1.028 1.355 1.826 1.355.795 0 1.353-.248 1.677-.748.32-.497.305-1.161-.05-1.995-.355-.832-.895-1.351-1.616-1.56-.707-.205-1.32.08-1.844.855z" fill="#725DB2"/>
</svg>
