<svg width="100" height="30" viewBox="0 0 100 30" fill="none" xmlns="http://www.w3.org/2000/svg">
    <path d="M37.306 17.47v1.283l-1.237.889c.825.079 1.717.401 2.678.97l.513-.683.354.262-2.07 2.244c-1.472-.957-2.596-1.227-3.367-.808l-.194-.171c.583-.73 1.108-1.382 1.573-1.957l-.009-6.87c.06-.988-.323-1.364-1.149-1.131l-.61.432-.212-.333 3.721-2.774v2.164c.854-1.293 1.656-1.996 2.404-2.109.872-.09 1.707.196 2.506.857.799.661 1.244 1.627 1.339 2.9.095 1.273-.557 2.647-1.954 4.126-1.395 1.477-2.825 1.713-4.286.71zm-.009-5.531.01 2.703c.535 1.167 1.31 1.75 2.32 1.75 1.01 0 1.72-.322 2.13-.965.41-.644.39-1.502-.062-2.578-.45-1.074-1.135-1.747-2.054-2.015-.898-.263-1.678.105-2.344 1.105zM49.486 11.543c-.637-.986-1.31-1.229-2.016-.727l-.415.513v3.726c.005.735.25 1.214.734 1.431.483.22.858.2 1.122-.058l.504-.565.23.18-1.016 1.302c-.807.783-1.573.92-2.297.408-.724-.512-1.07-1.127-1.035-1.845l.009-4.04c.053-.76-.23-1.021-.85-.782l-.723.53-.221-.279 3.544-2.54v1.958c.737-1.024 1.358-1.602 1.865-1.738.506-.136.961-.061 1.362.22.4.282.677.667.83 1.158l-1.194 1.042.018.008a.759.759 0 0 0-.124.09l-.132.118a3.15 3.15 0 0 0-.31.322 1.303 1.303 0 0 0-.31.902c.01.339.142.606.393.8.25.194.568.274.956.238.385-.037.7-.345.94-.925l.071.045c-.23.61-.54.956-.932 1.04-.391.085-.75.02-1.075-.188-.324-.21-.507-.487-.548-.836-.041-.348.003-.644.133-.887.102-.192.262-.397.487-.62z" fill="#F8EAD6"/>
    <path d="M57.596 9.698c.451.494.726 1.008.826 1.54l-4.994 3.582c.454 1.096 1.259 1.703 2.413 1.822 1.155.122 2.13-.564 2.926-2.054l.221.268c-.86 1.808-1.737 2.84-2.63 3.099-.892.258-1.736.243-2.527-.041a3.697 3.697 0 0 1-1.878-1.458c-.46-.69-.69-1.566-.69-2.632 0-1.065.26-1.995.779-2.787.518-.794 1.093-1.375 1.722-1.747.631-.37 1.315-.52 2.05-.444.738.075 1.331.36 1.782.852zm-3.55.413c-.425.07-.752.323-.981.76-.23.437-.332.967-.305 1.589.026.623.161 1.236.402 1.842l3.245-2.336c-.312-.903-.677-1.456-1.097-1.656a2.088 2.088 0 0 0-1.264-.199zM64.07 10.853h-2.403c-.42-.06-.76.123-1.026.547-.264.426-.299 1.035-.1 1.827.198.793.646 1.53 1.347 2.209.701.68 1.477.976 2.33.888.851-.086 1.465-.648 1.842-1.684l.327.207c-.666 1.676-1.512 2.687-2.536 3.03-1.026.345-1.97.21-2.83-.404-.86-.613-1.436-1.4-1.728-2.357-.291-.956-.27-1.792.063-2.505.332-.712.802-1.395 1.41-2.05a9.463 9.463 0 0 1 1.971-1.639l3.094-.009-1.45 1.94c-.142.125-.283.31-.425.556-.171.3-.223.613-.156.941.068.33.242.568.522.714.28.147.608.17.986.069.376-.103.633-.462.77-1.079l.079.028c-.125.639-.371 1.036-.743 1.19a1.38 1.38 0 0 1-1.088.008c-.353-.146-.58-.387-.68-.723-.1-.335-.11-.634-.027-.897.077-.232.227-.502.451-.807zM69.887 15.055c.005.735.207 1.214.602 1.431.395.22.724.2.99-.058l.502-.565.23.18-1.017 1.302c-.819.79-1.543.915-2.174.376-.63-.538-.926-1.143-.893-1.813l.01-4.04c.053-.76-.23-1.021-.85-.782l-.724.53-.22-.279 3.421-2.54.124.135v6.123h-.001zM68.605 4.288c.506.371.878.962 1.114 1.77l.821-.701.186.296-3.137 2.595-.238-.234.768-.681a3.549 3.549 0 0 0-1.123-1.77l1.609-1.275zM77.224 8.909c.648.086 1.305.4 1.97.938.666.539 1.083 1.279 1.251 2.219.168.938.143 1.735-.079 2.387a5.179 5.179 0 0 1-.932 1.696c-.401.48-.96.958-1.68 1.438-.718.479-1.496.648-2.333.506-.836-.14-1.57-.556-2.196-1.248-.627-.69-1.01-1.434-1.149-2.23-.14-.796-.1-1.518.12-2.167.218-.65.656-1.325 1.315-2.024.661-.702 1.284-1.15 1.867-1.347a3.99 3.99 0 0 1 1.846-.168zm-2.414 1.477c-.583.185-.995.686-1.237 1.499-.243.814-.033 1.752.628 2.815.66 1.063 1.4 1.702 2.219 1.918.818.216 1.428.187 1.826-.086.396-.272.633-.755.707-1.445.073-.692-.1-1.55-.518-2.578-.418-1.026-.981-1.684-1.688-1.97-.708-.289-1.353-.338-1.937-.153zM88.14 16.06c-.213.7-.677 1.24-1.397 1.616-.908.492-1.813.455-2.714-.107s-1.332-1.437-1.29-2.62l-.018-2.22c.042-.74-.046-1.203-.261-1.387-.216-.183-.463-.199-.747-.048l-.635.51-.23-.25 3.738-2.739V13c-.082 2.227.398 3.465 1.441 3.717.967.232 1.63-.213 1.989-1.338l.008-3.007c.025-.51-.072-.824-.283-.947-.21-.123-.435-.124-.67-.004l-.637.43-.15-.331 3.607-2.703v6.427c.036.791.34 1.312.915 1.568.573.254 1.019-.048 1.33-.912l.22.01c-.112.76-.491 1.367-1.14 1.823-.647.454-1.35.4-2.104-.162a2.586 2.586 0 0 1-.973-1.51zM99.171 8.887l-1.431 1.616-3.05-.01c-.713.534-.216 1.008 1.493 1.424 1.71.416 2.765.804 3.168 1.167.405.362.619.78.645 1.253.027.472-.09.973-.348 1.504-.26.529-.718 1.073-1.375 1.63-.656.556-1.511.743-2.563.56-1.052-.183-1.856-.519-2.412-1.009-.558-.49-.842-1.001-.854-1.531-.011-.53.451-1.127 1.388-1.79l.239.214c-.378.246-.536.543-.477.889.058.347.54.747 1.445 1.2.904.452 1.698.655 2.382.61.682-.044 1.082-.252 1.197-.62a.924.924 0 0 0-.23-.973c-.269-.282-.806-.531-1.612-.75a12.814 12.814 0 0 1-2.388-.915c-.783-.391-1.08-.995-.892-1.808.188-.815.825-1.7 1.91-2.658h3.49c.078-.085.157-.183.24-.296.206-.282.292-.591.26-.93-.032-.337-.18-.593-.442-.766-.261-.175-.585-.232-.968-.175-.383.057-.677.383-.884.982l-.07-.045c.188-.618.474-.98.862-1.09.385-.112.747-.074 1.082.112.336.185.534.45.597.794.062.343.036.645-.074.902a2.73 2.73 0 0 1-.328.509z" fill="#F8EAD6"/>
    <path d="M25.58 21.38c-.007-.23.003-.464-.021-.693a7.966 7.966 0 0 0-.466-1.95c-.173-.457-.386-.9-.682-1.296-.039-.053-.083-.131-.164-.09-.029.017-.049.096-.037.134.133.416-.006.804-.145 1.177-.171.463-.324.956-.82 1.2-.19.324-.518.451-.847.474-.852.06-1.692-.042-2.414-.556a3.812 3.812 0 0 1-1.533-2.247c-.066-.264-.1-.56-.402-.781 1.055-.03 2.067-.29 3.049.095.995.392 1.622 1.151 1.904 2.198.041.15.079.3.044.473-.023.12-.059.348.201.344-.003-.014-.003-.03-.003-.045 0-.12.05-.232.028-.368a5.756 5.756 0 0 0-.283-1.067c-.166-.454-.45-.807-.792-1.108-.54-.475-1.165-.795-1.922-.887.224-.124.408-.219.586-.325.493-.298.995-.581 1.23-1.172.054-.137.12-.298.27-.39.067-.042.001-.11-.012-.162l.058-.061c.13-.304.345-.578.287-.943-.011-.076.012-.16.032-.238.16-.65.273-1.315.498-1.947.032-.089.075-.217-.06-.255-.106-.03-.158.079-.18.163-.14.5-.3.991-.51 1.466-.109.248-.14.526-.27.772-.112.208-.392.284-.424.554-.003.015-.026.03-.041.043-.308.278-.602.575-.946.81l.019.027-.02-.026-.18.12c-.444.221-.935.286-1.412.427.106.15.254.104.385.123.258.035.382.228.4.457.012.156-.137.299-.28.303-.482.016-.923.206-1.386.292-.662.124-1.211.485-1.786.785a3.241 3.241 0 0 0-.79.62c-.509.529-.974 1.102-1.306 1.781-.1.204-.188.387-.171.614-.14.002-.277.002-.417.002-.198-.086-.011-.302-.15-.433-.215-.2-.308-.49-.455-.742a5.237 5.237 0 0 0-1.043-1.271 6.33 6.33 0 0 0-1.464-.955 7.398 7.398 0 0 0-2.231-.658c-.244-.033-.441-.089-.494-.332-.048-.21.18-.412.452-.459.12-.02.265.018.354-.191-.22.139-.352-.038-.519-.07-.925-.184-1.68-.635-2.124-1.52-.013-.026-.034-.063-.054-.065-.3-.025-.384-.288-.437-.496-.118-.45-.343-.858-.454-1.31-.06-.242-.158-.475-.24-.712-.029-.084-.079-.153-.174-.113-.083.033-.062.116-.043.185.12.433.279.86.355 1.302.069.4.282.792.12 1.221-.017.046.004.124.07.086.142-.084.093.043.1.088.053.352.198.661.397.952.119.175.194.385.324.548.413.515 1 .785 1.58 1.098-.506.102-.975.23-1.386.502-.399.264-.8.543-1.046.967-.281.488-.5 1.008-.574 1.575a.846.846 0 0 0-.005.241c.013.076.036.175.131.18.124.005.1-.107.1-.18a2.532 2.532 0 0 1 .12-.795c.214-.723.626-1.324 1.247-1.712.608-.381 1.305-.602 2.04-.507.519.066 1.048.01 1.62.137-.337.173-.338.473-.408.724-.414 1.444-1.253 2.448-2.758 2.762-1.274.265-2.01-.02-2.604-1.03a3.047 3.047 0 0 1-.443-1.554c-.001-.113.122-.274.003-.33-.14-.064-.15.184-.276.222-.019.008-.024.053-.039.08-.65 1.126-1.007 2.336-1.016 3.646-.001.088.026.184-.057.253.059.1.05.212.062.322.028.298.053.597.12.892.171.742.475 1.425.891 2.055a4.643 4.643 0 0 0 1.713 1.57c.289.155.57.323.87.45a5.77 5.77 0 0 0 1.923.463c.448.024.917.163 1.362-.044.364-.11.731-.2 1.076-.364.164-.039.315-.11.466-.19.416-.217.767-.532 1.15-.796.355-.247.683-.56.838-.997.03-.088.12-.203-.003-.27-.117-.064-.162.069-.225.14-.449.517-.946.968-1.608 1.188-.414.137-.792-.14-.799-.592.059-.129-.001-.276.257-.335.463-.105.584.227.824.457-.07-.261-.028-.541-.163-.797-.283-.543-.794-.773-1.322-.937a11.144 11.144 0 0 0-1.034-.271c-.025-.048-.07-.06-.118-.063-.35-.252-.243-.625-.241-.969.043-.054.116-.107.123-.166.032-.243.203-.213.357-.194.178.021.316.105.37.3.026.096.043.172-.043.242s-.14.06-.225-.021c-.148-.145-.209-.035-.219.115-.007.117.032.255.13.285.109.035.237.074.367-.003.26-.155.35-.354.256-.79-.06-.279-.307-.385-.557-.426a1.798 1.798 0 0 0-.566-.003.918.918 0 0 0-.772.661c-.328.404-.13.81 0 1.216l.12.12a.214.214 0 0 0 .118.122c-.007.163-.146.31-.06.485.003.253.035.429.11.544.077.115.196.172.37.185.144.22.362.097.546.116.171.019.35-.052.309.264a.753.753 0 0 0 .162.531c.006.121.085.188.18.244.076.11.148.226.299.242.017.136-.048.193-.178.181-.318.137-.634.04-.953 0-.907-.121-1.593-.58-2.11-1.343-.206-.305-.381-.636-.647-.899-.191-.188-.42-.293-.67-.203-.204.073-.335.035-.462-.125-.055-.069-.134-.117-.206-.172-.42-.333-.952-.488-1.34-.883-.246-.253-.464-.739-.393-1.053.94.575 1.943.89 3.05.726.367-.056.74-.124 1.054-.353.039-.03.095-.04.089-.103-.006-.06-.053-.081-.105-.081-.514-.003-.894-.286-1.257-.61-.323-.29-.533-.638-.585-1.077-.011-.095.017-.14.116-.1.564.215 1.115.181 1.704.041.946-.223 1.647-.746 2.186-1.53.152-.223.29-.455.435-.682-.052.376.004.737.04 1.091.066.66.226 1.3.533 1.892.02.124.06.24.18.303.066.17.08.364.239.486.002.051.014.095.06.122.26.361.521.72.898.971.086.098.17.198.258.292.679.726 1.479 1.339 2.016 2.197-.07.295.033.652-.299.85-.352-.082-.448-.338-.225-.62.08-.103.026-.176-.05-.227-.098-.061-.196-.025-.25.073-.032.058-.009.15-.078.188-.41.23-.42.629-.408 1.025.013.442.277.83.578.827.242-.003.252.114.235.289-.05.537.117.836.607 1.081l.155-.652c.116.216.061.47.218.677.227-.24.586-.359.539-.78-.023-.161.15-.322 0-.484l.001-.122c.489-.002.676-.168.792-.616.168-.642-.1-1.095-.559-1.483-.05-.045-.096-.074-.15-.016-.043.044-.094.09-.054.156.026.043.07.072.1.11.108.134.047.39-.134.509-.161.104-.278.095-.374-.117-.13-.284-.124-.617.057-.862.054-.072.095-.154.14-.23.345-.507.842-.865 1.253-1.307.707-.759 1.582-1.375 1.978-2.396.197-.343.355-.701.42-1.094.299-.681.277-1.404.24-2.195 1.025 1.847 2.428 2.751 4.508 2.229-.026.085-.06.168-.077.254-.134.673-.967 1.455-1.635 1.532-.092.012-.226-.054-.26.075-.035.128.142.11.19.197.02.038.08.066.127.074.606.124 1.194.346 1.842.21.665-.14 1.319-.277 1.888-.677l.122-.118c.02-.002.039-.003.058-.002.043.415-.098.774-.377 1.061-.523.54-1.305.716-1.81 1.286-.016.02-.056.014-.086.02-.312-.274-.796-.014-1.064.389-.265.397-.505.825-.834 1.16-.338.342-.75.628-1.245.723-.462.087-.922.252-1.402.106-.063-.019-.152.005-.17-.09-.014-.075.055-.1.101-.135.37-.281.535-.665.532-1.125 0-.106.037-.117.116-.117.14 0 .282.015.42-.004.319-.044.629-.117.751-.48a.983.983 0 0 0 .016-.648c-.049-.139-.003-.24.077-.333.34-.401.426-.836.166-1.312-.371-.677-.824-.798-1.495-.635-.465.113-.534.518-.41.936.058.194.24.279.446.29.13.006.203-.058.25-.173.038-.088.06-.178-.013-.256-.096-.102-.156.026-.232.047-.178.05-.243-.059-.246-.207-.003-.205.299-.416.506-.402.31.022.337.3.41.49.107.276-.083.732-.301.848-.31.17-.651.25-.992.314-.885.171-1.478.737-1.649 1.607-.014.076.012.134.122.22-.083-.249.141-.253.214-.383.163-.294.437-.13.644-.102.146.019.136.242.135.395-.001.07-.001.142-.003.212-.2.12-.363.303-.598.366-.198-.086-.41-.128-.602-.244-.48-.287-.918-.621-1.251-1.084-.043-.059-.096-.117-.171-.083-.092.04-.033.115-.026.18.048.393.346.612.578.878.232.265.564.395.834.617.31.254.651.49 1.056.587l.242.118c.32.102.635.248.961.293.6.085 1.203.02 1.796-.084a6.61 6.61 0 0 0 2.925-1.302l.3-.242c.045-.076.065-.18.18-.183l.357-.424c-.009-.094.084-.117.122-.181.16-.263.317-.527.477-.79.404-.864.646-1.764.595-2.732zm-20.399.047c.346.416.763.725 1.32.957-1.185.321-2.224.076-3.22-.43-.19-.097-.32-.295-.548-.348-.125-.03-.08-.178-.086-.266-.072-.928.304-2.486.826-3.397.053.277.098.524.162.763.174.637.545 1.108 1.058 1.486.117.086.123.172.135.325.023.32.129.641.353.91zm7.773 2.564c-.3-.218-.477-.547-.703-.83-.22-.276-.41-.58-.614-.87l-.121-.243c-.16-.418-.345-.83-.418-1.277-.042-.258-.056-.515-.122-.775-.075-.303.004-.65.031-.977.016-.177.078-.35-.037-.52-.122.086-.122.219-.161.33a.524.524 0 0 1-.463.366c-.232.032-.32-.144-.4-.3-.17-.33-.161-.703-.117-1.05.036-.273.138-.54.171-.82.014-.111.035-.188.217-.14.878.24 1.608.746 2.224 1.379.466.477.877 1.045.976 1.76.023.164-.022.247-.194.264-.33.032-.622-.125-.792-.446-.027-.053-.047-.133-.116-.12-.082.017-.085.104-.08.175.024.356.127.682.419.9.166.125.135.2.001.308a.938.938 0 0 0-.362.793c.003.061 0 .131.062.16.079.036.09-.048.13-.088.25-.269.593-.35.922-.448.197-.059.113.159.11.198-.027.603-.096 1.201-.32 1.767-.033.087-.075.167-.066.262-.056.08-.118.16-.177.242zm1.754.499c-.143.153-.277.315-.319.533-.331.065-.216.45-.418.607.012-.407-.339-.604-.508-.906a1.13 1.13 0 0 0-.197-.26c-.152-.143-.092-.31-.075-.473l.124-.242c.232-.322.271-.714.336-1.08.056-.32.078-.659.069-.988-.004-.184.062-.25.208-.234.144.015.358-.061.368.21.016.479.006.96.147 1.426.092.307.155.625.327.896.13.203.086.352-.062.511zm3.449-5.903c-.03.105-.052.218-.105.312-.088.153-.17.33-.402.296a.524.524 0 0 1-.46-.37c-.039-.109-.035-.244-.189-.342-.103.578.146 1.132.022 1.683l-.001.061c.008.007.016.016.026.023l.041.04c-.017.003-.014.017-.011.03a.193.193 0 0 0-.115.028c-.065.283-.033.585-.178.85a4.977 4.977 0 0 1-.962 1.843c-.192.236-.378.484-.566.728-.185.24-.228.254-.359-.025-.17-.365-.258-.754-.335-1.151-.067-.348-.034-.698-.067-1.057.105.007.21.018.313.025.24.11.494.198.694.385.044.044.047.155.144.111.073-.035.06-.12.06-.19.009-.417-.231-.683-.537-.913.317-.242.557-.53.576-.965.005-.123-.005-.207-.094-.293-.247.543-.744.751-1.083.47.175-1.053.79-1.79 1.606-2.422.485-.375.99-.656 1.568-.836.132-.04.244-.033.254.09.039.532.32 1.038.16 1.588zm7.028 3.05c-.117.027-.215.149-.323.227-1.03.612-2.12.83-3.309.532.447-.259.904-.485 1.203-.915.228-.329.514-.64.396-1.1-.024-.097.07-.115.121-.148.55-.402.95-.908 1.11-1.587.054-.223.096-.448.152-.704.635 1.075.761 2.247.808 3.44-.002.115.01.217-.158.255z" fill="#725DB2"/>
    <path d="M28.043 17.111c-.11-.121-.055-.268-.07-.406l.001-.12c.108-.083-.021-.164-.003-.245.042-.53-.129-1.027-.215-1.538-.076-.457-.325-.84-.502-1.252-.133-.352-.369-.648-.577-.946-.197-.28-.403-.594-.736-.757-.146-.225-.363-.367-.58-.5-.597-.373-1.26-.558-1.934-.714-.573-.1-1.147-.152-1.73-.097-.36.034-.677.212-1.026.28.546-.489 1.02-1.039 1.37-1.691.061-.112.137-.111.22-.066.226.12.479.123.718.181.521.132.995 0 1.442-.273.037-.023.06-.097.114-.048.05.047.099.108.116.172.023.085-.066.086-.118.098-.211.05-.368.191-.543.307-.287.19-.468.487-.7.732-.073.08-.089.202.018.261.1.059.145-.014.183-.12.052-.136.146-.259.226-.386.216-.343.88-.635 1.27-.563a.278.278 0 0 1 .177.102c.125.153.15.3-.01.45-.145.134-.283.272-.482.093-.053-.048-.093-.113-.172-.053-.049.035-.043.08-.026.133.13.381.793.73 1.132.587.53-.22.864-.93.631-1.289-.194-.296-.083-.464.15-.629.033-.023.07-.042.099-.069.234-.216.357-.769.041-1.015-.291-.227-.56-.267-.888-.056-.083.053-.225.209-.284.013-.062-.204-.214-.31-.34-.443-.335-.35-.996-.321-1.368.048-.214.214-.19 1.004.041 1.258.033.04.07.079.125.054.078-.035.048-.092.032-.152-.02-.08-.157-.121-.072-.233.115-.152.437-.174.606-.038.166.131.168.347.013.53a.664.664 0 0 1-.559.252c-.274.001-.55.052-.826-.002-.632-.124-1.172-.47-1.737-.756l-.06-.06c-.23-.141-.443-.315-.719-.364-1.8-.877-3.534-.667-5.212.38.564-.712.74-1.484.536-2.318-.201-.828-.69-1.479-1.414-1.966 1.019-.213 2.172.347 2.744 1.053.046.059.076.132.161.082.08-.047.05-.11.014-.18a1.29 1.29 0 0 1-.116-.307c-.155-.69-.54-1.24-.976-1.772-.446-.543-1.024-.914-1.602-1.286.161-.004.312-.09.478-.063.603.075 1.169.276 1.734.49.11.11.257.123.396.164.21.06.487.028.58.297.081.236.27.302.46.386.203.13.401.048.6-.008a1.91 1.91 0 0 1 1.327.11c.721.333 1.186.948 1.604 1.6l.003.058c.087.354.087.354-.272.305-.029-.003-.059 0-.088 0-.166-.003-.356-.038-.471.103-.13.156-.191.06-.26-.034-.13-.174-.261-.343-.465-.435-.637-.444-1.014-.409-1.377.123-.305-.016-.616.008-.808.273a1.146 1.146 0 0 0-.198.934c.07.344.298.578.633.6.323.023.611-.182.611-.434 0-.11-.024-.217-.155-.207-.09.009-.158.04-.14.194.02.187-.097.31-.328.24-.213-.062-.3-.226-.34-.412-.052-.237.2-.23.307-.339.243-.012.481.004.717.061.123.097.287.17.363.295.192.315.451.555.715.798.142.075.248.215.418.244.613.318 1.415.034 1.406-.512-.039.02-.07.047-.105.057-.14.038-.291.115-.395-.059-.092-.153-.18-.312-.076-.503.093-.168.224-.207.398-.143.044.016.1.003.148.004.02.002.039.002.059.002.043.07.112.058.178.063.096.218.27.436.276.656.019.65.082 1.32-.274 1.917-.06.1-.048.183.03.235.093.064.15-.037.18-.101.061-.136.107-.28.147-.425.216-.778.25-1.57.11-2.36-.085-.487-.163-.995-.526-1.383-.012-.294-.213-.495-.355-.72-.374-.588-.788-1.143-1.384-1.526l-.06-.062c-.135-.14-.31-.216-.479-.302-.043-.07-.113-.058-.18-.06l-.06-.001c-.033-.037-.059-.088-.099-.108-.794-.384-1.63-.635-2.526-.62-.07.005-.14.008-.214.008-.332 0-.666-.042-.984.113l-.178.062c-.203-.016-.408-.035-.6.059-.11.003-.215.007-.324.036-.467.126-.935.101-1.412.032-.671-.097-1.328-.287-2.013-.299C10.72.857 10.08.81 9.48 1.1l-.059.002c-.22-.013-.41.088-.597.183l-.3.18c-.26.055-.485.192-.719.306-.396.233-.74.541-1.042.884-.198.225-.457.422-.515.752-.07.001-.102.036-.123.08-.02.045-.031.098-.056.136-.788 1.169-1.046 2.456-.83 3.848.049.32.13.63.247.929.032.081.092.185.197.138.122-.057.093-.162.02-.25-.086-.106-.115-.236-.154-.358-.153-.492-.125-1.002-.13-1.504-.003-.341.31-.72.59-.772.165-.057.338-.09.448.088.118.185.095.382-.038.556-.157.201-.342.095-.528 0 .053.296.486.658.803.668.151.006.34.12.453-.096a.39.39 0 0 0 .237-.063l.241-.18c.163-.094.31-.205.419-.364.218-.155.342-.387.478-.607.171-.059.286-.23.478-.244l.121-.001h.237c.153-.027.267.055.382.135.144.101.094.222.04.35-.078.187-.228.295-.413.287-.127-.008-.224-.124-.187-.283.036-.155-.076-.17-.17-.177-.132-.009-.136.096-.126.19.017.157.035.299.221.382.272.121.552.137.752-.042.317-.285.38-.694.24-1.093-.108-.31-.278-.603-.678-.596h-.296c-.025-.017-.058-.03-.07-.054-.238-.397-.374-.455-.795-.31-.388.134-.758.297-.983.68-.032.053-.1.173-.174.097-.28-.292-.598-.162-.91-.11a.294.294 0 0 1-.06-.173c0-.089.045-.175.098-.261.125-.2.254-.399.38-.599l.18-.243a.207.207 0 0 0 .12-.121c.025-.017.054-.03.074-.049.658-.636 1.405-.915 2.31-.636.34.104.64-.063.867-.391.102-.149.213-.286.437-.293.145-.003.316-.033.44-.15.534-.217 1.064-.444 1.642-.526.25-.037.465-.025.652.09a5.525 5.525 0 0 0-1.848 1.597 4.47 4.47 0 0 0-.777 1.678c-.019.082-.13.158-.003.224.1.052.125-.059.174-.119.355-.429.819-.715 1.322-.906a2.84 2.84 0 0 1 1.234-.158c.037.005.098-.004.112.018.059.085-.037.09-.076.117-.4.28-.684.658-.951 1.064-.635.969-.5 2.335.235 3.12-.363-.092-.64-.285-.938-.43-.032-.07-.088-.101-.158-.126a6.181 6.181 0 0 0-1.938-.358c-.276.005-.545.068-.815.103-.816.103-1.541.426-2.22.864-.826.535-1.69.891-2.696.774-.22-.026-.525-.38-.49-.598a.343.343 0 0 1 .242-.282c.176-.056.34.01.476.12.112.092-.039.15-.059.228-.016.058-.053.117.022.156.07.035.113-.016.143-.07.125-.234.233-.483.176-.747-.038-.18.001-.408-.19-.523-.68-.41-1.076-.433-1.59.307-.139.2-.228.197-.397.083-.296-.197-.556-.164-.812.044-.243.198-.271.443-.142.83.075.225.276.31.42.451.114.111.113.17.037.295a.814.814 0 0 0-.08.714c.129.402.367.677.758.761.388.085.761-.154.98-.548.034-.062.093-.117.017-.183-.078-.067-.125-.009-.172.048-.118.146-.258.1-.371.012-.134-.1-.266-.226-.197-.43.055-.157.17-.225.346-.23.575-.013 1.151.356 1.398.936.046.11.076.204.197.134.088-.05.086-.191.017-.24-.202-.14-.274-.39-.477-.535-.258-.184-.465-.44-.787-.528-.088-.025-.14-.086-.057-.18.044-.05.05-.138.173-.052.462.322.98.408 1.525.279.21-.053.432-.05.63-.165.09-.054.172-.047.242.075.352.62.78 1.18 1.332 1.645-.035.012-.055.025-.07.022a.24.24 0 0 1-.084-.025c-.454-.201-.928-.316-1.42-.264-.5.051-1.015.01-1.497.187-.428.16-.876.26-1.285.467-.663.334-1.176.858-1.625 1.429-.186.236-.38.508-.453.826l-.178.244c-.032.146-.201.207-.23.341-.151.693-.41 1.366-.428 2.086.008.481-.095.96.049 1.443.063.212-.012.46.071.683.107.469.24.928.419 1.376.3.762.613 1.508 1.316 2 .19.133.339.25.48-.037a.61.61 0 0 0-.156-.19.412.412 0 0 0-.24-.087c.265-.143.272-.147.08-.358-.209-.229-.327-.5-.4-.796-.1-.406-.211-.809-.303-1.218-.035-.15-.207-.264-.118-.446.134.044.224.04.303-.12.155-.308.072-.604-.003-.902-.12-.473-.454-.843-.619-1.299-.056-.156.076-.384-.157-.474v-.12c.05-.007.111-.02.104-.08-.04-.283.096-.55.073-.832.157-.24.236-.51.299-.788.024-.03.056-.058.072-.093.177-.377.248-.389.582-.135.103.08.1.138.059.248a3.32 3.32 0 0 0-.203.663c-.047.3-.06.622.104.892.129.216.324.549.58.404.335-.19.335.076.443.209.07.084.123.176.218.242.338.24.984.242 1.46-.232.33-.33.329-.473.2-.927-.062-.214-.255-.26-.463-.24-.168.013-.266.083-.286.284.195-.077.368-.283.536-.015.105.17.053.65-.11.727-.208.1-.406.012-.573-.133-.043-.037-.076-.093-.11-.143-.249-.356-.32-.764-.36-1.19-.04-.441.134-.856.124-1.29v-.182c0-.134-.154-.217-.12-.365-.09-.143-.176-.289-.275-.426-.037-.05-.093-.134-.167-.081-.063.043-.037.13-.008.194.044.102.103.197.093.313l-.003.243c-.115.07-.214.175-.358.184-.165.017-.277-.046-.369-.194a.827.827 0 0 1 .181-1.098c.219-.177.466-.302.72-.412.711-.309 1.438-.567 2.223-.602.702-.03 1.378.06 2 .43.218.132.2.254.059.415-.124.14-.249.28-.375.419-.312.347-.633.68-1.167.637.03.197.194.234.325.268.33.087.66.086.965-.108.076-.049.16-.14.267-.047.092.077.042.16.028.248-.016.098-.029.203.036.293l.602.845c0-.211.002-.36-.002-.506-.014-.526-.003-1.047.239-1.53.118-.232.218-.245.383-.042.121.146.22.31.34.457.607.732.882 1.575.851 2.53-.013.383-.002.767-.092 1.143-.02.083-.008.14.068.172.076.033.136-.001.178-.068a.532.532 0 0 0 .084-.255c.02-.319.025-.643.027-.958.003-.222.041-.484-.088-.703l-.003-.12c-.043-.536-.291-.994-.511-1.467-.199-.423-.565-.684-.87-1.004-.041-.04-.112-.083-.081-.147.044-.094.12-.034.18-.01.277.113.562.179.858.229 1.181.201 2.127-.294 2.918-1.095a4.181 4.181 0 0 0 1.03-1.814c.068-.24.159-.48.13-.741-.009-.08-.032-.14-.12-.14-.055 0-.108.02-.093.087.088.359-.126.215-.28.175a.95.95 0 0 1-.563-.422c-.537-.802-.509-1.658-.164-2.52.21-.526.553-.933 1.027-1.263.26-.18.47-.25.707-.087 1.107.76 1.574 1.918 1.276 3.181-.128.538-.418.977-.984 1.149-.092.028-.181.054-.197-.089-.01-.077.112-.228-.089-.204-.145.019-.102.16-.095.248.033.425.186.814.357 1.197.356.792.867 1.45 1.607 1.906.949.583 1.943.59 2.96.21.095-.035.191-.104.22.068-.477.396-.888.841-1.154 1.42-.375.824-.464 1.685-.402 2.575.013.17-.035.344.037.508.042.096.09.198.217.156.12-.04.074-.133.058-.226a6.018 6.018 0 0 1 .008-2.128c.151-.785.676-1.376 1.144-1.985.055-.072.15-.18.274-.076.397.661.284 1.404.3 2.151.235-.19.318-.452.504-.633.139-.139.192-.304.139-.493-.07-.26.078-.257.243-.205.15.05.289.138.44.184.339.1.775-.058.908-.337-.26.064-.473-.026-.679-.155-.405-.252-.64-.67-.962-1.002-.082-.083-.046-.136.034-.193a2.8 2.8 0 0 1 1.013-.45c.614-.138 1.22-.004 1.83-.021.169.06.335.122.505.18.697.227 1.395.449 1.948.974.033.285.198.568.002.85-.164.258-.352.316-.591.185-.218-.118-.261-.333-.13-.607.041-.085.107-.174.02-.27-.423.27-.651.881-.54 1.414.04.204.075.409.104.616l-.003.604c-.096.086-.043.201-.059.304l-.356.73c-.476.313-.726.227-.793-.275a.41.41 0 0 1 .155-.4c.127-.098.22-.015.319.056.037.024.086.058.135-.006-.055-.263-.26-.225-.445-.225-.2 0-.276.149-.32.308-.137.505-.018.759.47 1.027.034.08.093.121.179.121.083.103.198.047.298.062.366.118.788-.076 1.003-.475.048-.087.13-.227.176-.184.162.16.332.14.471.034.134-.103.299-.206.328-.407.058-.072.162-.131.06-.244-.033-.08-.056-.16-.002-.242.121-.36-.087-.654-.18-.972-.111-.267.113-.312.26-.406.102-.061.224-.112.281.027.168.402.356.804.466 1.224.116.454.11.931.07 1.401-.254.45-.563.874-.691 1.38-.068.266-.112.548.057.838.097.164.312.012.335.21-.039.062-.077.123-.118.184-.06.157-.139.311-.174.475-.149.678-.19 1.398-.781 1.881.083.104.21.04.289.214-.206-.148-.217.063-.248.072-.3.096-.048.271-.02.32.084.141.163-.027.232-.065.13-.07.245-.17.355-.271.774-.723 1.021-1.72 1.369-2.67.18-.498.043-1.063.329-1.536a.249.249 0 0 0-.039-.079zm-14.461-8.48c-.247.126-.164.328-.231.48-.213.466-.423.942-.758 1.326-.675.77-1.501 1.227-2.563 1.149a6.208 6.208 0 0 1-.987-.143c-.19-.044-.273-.108-.1-.297.24-.261.402-.59.683-.826.207-.17.416-.305.676-.352.138-.026.146-.07.049-.17-.288-.285-.661-.35-1.015-.13-.231.144-.279.058-.271-.162a.448.448 0 0 0-.07-.257c-.101-.164-.12-.474-.335-.43-.18.037-.173.357-.17.538.007.537-.346.915-.517 1.37-.043.117-.095.098-.199.053-.525-.235-.887-.638-1.208-1.105a10.805 10.805 0 0 0-.424-.58c-.039-.05-.132-.087-.073-.171.045-.066.124-.06.193-.038.109.033.237.118.185-.122-.004-.017.165-.096.26-.113.441-.082.826-.35 1.266-.413.517-.076 1.043-.165 1.567-.024.46.124.94.196 1.372.383.275.118.59.242.775.53.03.048.076.109.145.075.066-.032.059-.112.039-.159-.088-.216-.028-.411.043-.616.093-.277.218-.343.483-.198.346.19.72.3 1.185.403zm-.15-4.979c-.886-.24-1.569.283-2.331.655.066-.388.252-.686.458-.954.398-.524.819-1.026 1.368-1.412.322-.227.694-.337 1.036-.516.184-.096.301.172.488.162 1.151.573 1.937 1.488 2.421 2.7-.253-.127-.507-.25-.757-.381-.46-.24-.927-.36-1.458-.272-.4.066-.816.015-1.225.018zm6.643 7.166c-.207-.467-.525-.882-.558-1.429-.01-.184.03-.5-.218-.537-.22-.035-.226.261-.303.422-.128.262-.273.357-.538.328-.389-.193-.65.06-.95.318.508.03.828.375 1.186.656.11.223.211.452.421.604.093.144-.002.201-.116.235-.796.238-1.588.299-2.368-.067-.66-.31-1.233-.71-1.552-1.415-.075-.164-.17-.341-.332-.453-.021-.103-.033-.212-.05-.319a.83.83 0 0 0-.095-.29c-.145-.24-.024-.258.15-.307.317-.089.616-.218.912-.364.217-.107.336-.01.425.221.108.28.098.542.003.797.049.062.089.051.116.018.38-.448.887-.655 1.431-.806.536-.147 1.072-.324 1.633-.277.347.03.704.05 1.04.172h.06l.18.061c.162.111.424.04.513.292.021.063.077.02.125.008.184-.041.186-.032.342.182.049.066.123.042.185.018.076-.033.15-.069.21.021.067.103-.009.176-.065.24-.42.473-.727 1.05-1.251 1.427-.166.105-.32.244-.536.244z" fill="#725DB2"/>
    <path d="M14.484 7.257c-.056.073-.12.18-.238.15-.115-.03-.146-.115-.131-.232.014-.125-.076-.071-.14-.08-.101-.012-.117.01-.087.11.026.085-.022.161-.1.196-.077.032-.127-.035-.18-.08-.248-.213-.413-.622-.413-1.027.055-.36.112-.721.383-.988.089-.088.19-.373.363-.06.01.017.1.02.11.003.216-.327.328-.006.403.094.442.606.431 1.385.03 1.914zM8.183 17.505c-.15.399-.236.825-.554 1.144-.329.33-.683.6-1.146.702-.12.028-.17-.007-.171-.127-.002-.089 0-.18 0-.271.116-.485.348-.887.777-1.153.14-.061.262-.165.418-.184.173-.076.35-.121.54-.123.03-.05.058-.12.131-.09.043.017.02.063.005.102zM21.692 19.4c-1.084-.246-1.666-.938-1.88-1.987 1.07.225 1.914.667 1.88 1.988zM13.23 16.355v.642l-.62.445c.413.038.86.2 1.34.485l.256-.342.176.13-1.034 1.123c-.737-.48-1.3-.613-1.684-.405l-.098-.086c.292-.365.555-.69.786-.978l-.003-3.434c.03-.493-.162-.681-.573-.565l-.305.215-.106-.166 1.86-1.388v1.083c.427-.647.828-.999 1.202-1.056.437-.045.853.098 1.253.43.4.33.622.812.67 1.45.047.635-.28 1.324-.978 2.062-.697.739-1.41.857-2.142.355zm-.004-2.766.004 1.352c.269.582.654.875 1.16.875.507 0 .861-.16 1.067-.483.204-.32.194-.75-.032-1.288-.225-.537-.569-.873-1.027-1.007-.45-.133-.839.05-1.172.551z" fill="#725DB2"/>
</svg>
