<svg width="230" height="64" viewBox="0 0 230 64" fill="none" xmlns="http://www.w3.org/2000/svg">
    <path d="M85.47 37.571v2.894l-2.835 2.004c1.89.178 3.933.905 6.136 2.19l1.175-1.541.81.589-4.74 5.063C82.64 46.61 80.067 46 78.3 46.946l-.445-.385a924.002 924.002 0 0 1 3.605-4.414l-.02-15.494c.135-2.229-.74-3.078-2.633-2.551l-1.396.974-.487-.75 8.525-6.258v4.881c1.956-2.916 3.792-4.503 5.507-4.756 1.998-.204 3.91.441 5.741 1.932 1.83 1.491 2.85 3.67 3.068 6.54.217 2.871-1.277 5.972-4.477 9.306-3.196 3.332-6.471 3.865-9.819 1.6zm-.02-12.475.02 6.096c1.227 2.633 3.001 3.947 5.315 3.947 2.314 0 3.944-.725 4.882-2.176.938-1.452.892-3.387-.142-5.813-1.033-2.423-2.6-3.94-4.707-4.546-2.057-.593-3.845.237-5.369 2.492zM113.372 24.203c-1.458-2.225-2.998-2.771-4.618-1.639l-.951 1.156v8.403c.013 1.66.573 2.74 1.682 3.23 1.106.493 1.965.45 2.571-.132l1.155-1.274.527.405-2.327 2.936c-1.85 1.768-3.605 2.077-5.264.922-1.659-1.156-2.452-2.541-2.37-4.161l.02-9.111c.122-1.715-.527-2.305-1.946-1.765l-1.659 1.195-.506-.629 8.12-5.73v4.417c1.689-2.31 3.111-3.614 4.273-3.92 1.159-.306 2.202-.139 3.12.497.919.635 1.551 1.504 1.903 2.61l-2.735 2.35.039.02a1.76 1.76 0 0 0-.283.204l-.303.263a7.246 7.246 0 0 0-.711.728 2.913 2.913 0 0 0-.711 2.034c.026.764.326 1.366.902 1.804.573.438 1.3.619 2.189.537.882-.083 1.603-.777 2.156-2.087l.161.102c-.526 1.376-1.237 2.156-2.136 2.347-.895.19-1.718.046-2.462-.425-.741-.474-1.162-1.1-1.254-1.886-.096-.784.006-1.452.303-2.002.233-.43.602-.895 1.115-1.399z" fill="#F8EAD6"/>
    <path d="M131.955 20.043c1.034 1.112 1.662 2.27 1.893 3.472l-11.442 8.078c1.04 2.472 2.883 3.842 5.527 4.112 2.646.273 4.881-1.274 6.705-4.635l.507.605c-1.972 4.079-3.98 6.406-6.027 6.989-2.044.582-3.977.55-5.79-.092-1.817-.642-3.253-1.738-4.303-3.289-1.053-1.553-1.58-3.532-1.58-5.935 0-2.403.596-4.5 1.784-6.287 1.189-1.79 2.505-3.1 3.947-3.94 1.445-.836 3.012-1.172 4.697-1 1.689.167 3.049.809 4.082 1.922zm-8.134.931c-.974.155-1.721.728-2.248 1.712-.527.987-.76 2.182-.698 3.585.06 1.405.369 2.788.922 4.154l7.433-5.267c-.715-2.038-1.551-3.285-2.512-3.736-.958-.454-1.922-.602-2.897-.448zM146.787 22.646h-5.507c-.961-.135-1.741.277-2.35 1.235-.606.961-.685 2.334-.231 4.121.454 1.787 1.481 3.45 3.088 4.98 1.606 1.534 3.384 2.203 5.336 2.005 1.952-.194 3.357-1.462 4.223-3.799l.747.468c-1.524 3.779-3.463 6.06-5.81 6.833-2.35.777-4.513.474-6.481-.911-1.972-1.383-3.292-3.157-3.96-5.317-.668-2.156-.619-4.042.145-5.648.76-1.606 1.837-3.147 3.229-4.625 1.389-1.478 2.893-2.709 4.516-3.697l7.087-.02-3.321 4.375c-.326.284-.649.701-.974 1.255-.392.674-.511 1.382-.356 2.123.155.744.553 1.28 1.195 1.61.642.332 1.392.381 2.258.154.863-.23 1.452-1.04 1.764-2.433l.182.063c-.287 1.442-.85 2.337-1.702 2.683-.85.342-1.682.349-2.492.02-.81-.33-1.33-.873-1.56-1.63-.228-.757-.251-1.432-.06-2.024.175-.524.52-1.133 1.034-1.82zM160.111 32.123c.014 1.66.474 2.739 1.38 3.23.905.493 1.659.45 2.268-.132l1.152-1.274.526.405-2.33 2.936c-1.876 1.784-3.535 2.064-4.98.85-1.445-1.215-2.124-2.578-2.048-4.09l.023-9.114c.122-1.712-.526-2.3-1.945-1.76l-1.659 1.194-.504-.629 7.838-5.73.283.305v13.81h-.004zM157.175 7.84c1.159.836 2.012 2.17 2.551 3.99l1.883-1.58.425.668-7.186 5.853-.546-.527 1.761-1.537c-.474-1.623-1.33-2.953-2.574-3.993l3.686-2.874zM176.924 18.262c1.484.194 2.988.902 4.513 2.117 1.527 1.214 2.481 2.883 2.867 5.003.385 2.116.325 3.914-.181 5.385-.504 1.472-1.218 2.749-2.137 3.825-.918 1.083-2.199 2.16-3.848 3.242-1.646 1.08-3.426 1.462-5.346 1.143-1.915-.316-3.594-1.254-5.029-2.815-1.439-1.557-2.314-3.236-2.634-5.03-.319-1.797-.227-3.423.274-4.888.5-1.464 1.504-2.988 3.015-4.565 1.514-1.583 2.939-2.594 4.276-3.038 1.333-.451 2.742-.573 4.23-.379zm-5.531 3.331c-1.336.418-2.281 1.547-2.834 3.38-.556 1.838-.075 3.954 1.439 6.35 1.511 2.397 3.206 3.839 5.082 4.326 1.876.487 3.272.421 4.184-.194.908-.613 1.452-1.702 1.619-3.26.168-1.56-.227-3.495-1.185-5.812-.957-2.314-2.248-3.799-3.867-4.444-1.623-.652-3.101-.764-4.438-.346zM201.93 34.391c-.487 1.58-1.55 2.795-3.2 3.644-2.08 1.11-4.154 1.027-6.218-.24-2.063-1.267-3.051-3.242-2.956-5.912l-.039-5.003c.095-1.673-.105-2.716-.599-3.13-.494-.412-1.06-.448-1.712-.11l-1.455 1.153-.526-.566 8.565-6.176v9.438c-.188 5.023.911 7.814 3.301 8.384 2.216.523 3.733-.481 4.556-3.019l.02-6.78c.056-1.15-.165-1.86-.649-2.137-.484-.277-.997-.28-1.537-.01l-1.458.971-.343-.747 8.263-6.096V32.55c.082 1.784.78 2.96 2.096 3.535 1.314.573 2.334-.108 3.049-2.057l.503.023c-.257 1.715-1.126 3.085-2.61 4.112-1.485 1.023-3.094.901-4.823-.366-1.135-.843-1.879-1.978-2.228-3.407zM227.203 18.213l-3.278 3.644-6.989-.02c-1.632 1.201-.493 2.271 3.421 3.21 3.917.937 6.336 1.813 7.258 2.633.928.816 1.418 1.757 1.478 2.824.062 1.066-.204 2.195-.797 3.394-.596 1.191-1.646 2.42-3.15 3.676-1.504 1.255-3.463 1.676-5.872 1.265-2.41-.415-4.253-1.172-5.527-2.278-1.277-1.106-1.929-2.258-1.956-3.453-.026-1.195 1.034-2.542 3.18-4.04l.547.485c-.866.556-1.228 1.224-1.093 2.004.135.784 1.238 1.686 3.311 2.706 2.071 1.02 3.891 1.478 5.458 1.376 1.564-.099 2.479-.566 2.742-1.396.263-.83.086-1.563-.527-2.195-.615-.636-1.846-1.199-3.693-1.692a29.664 29.664 0 0 1-5.471-2.064c-1.794-.882-2.475-2.245-2.044-4.079.431-1.836 1.889-3.834 4.375-5.994h7.999c.177-.19.358-.411.546-.668.474-.635.671-1.333.599-2.097-.076-.76-.415-1.336-1.014-1.728-.599-.395-1.34-.523-2.218-.395-.876.128-1.551.866-2.025 2.215l-.161-.102c.431-1.392 1.086-2.208 1.975-2.459.882-.25 1.712-.164 2.479.254.77.418 1.224 1.014 1.369 1.79.142.774.082 1.456-.171 2.035a6.15 6.15 0 0 1-.751 1.149z" fill="#F8EAD6"/>
    <path d="M58.607 46.39c-.017-.52.006-1.047-.05-1.564a17.735 17.735 0 0 0-1.066-4.398c-.399-1.03-.886-2.03-1.564-2.923-.089-.118-.19-.296-.375-.2-.066.036-.112.213-.086.299.306.938-.013 1.814-.332 2.656-.392 1.044-.74 2.157-1.876 2.706-.438.731-1.189 1.017-1.943 1.07-1.951.135-3.877-.096-5.53-1.254-1.777-1.244-2.972-2.933-3.512-5.07-.151-.595-.23-1.26-.922-1.76 2.417-.066 4.737-.655 6.986.214 2.28.885 3.716 2.597 4.361 4.957.096.339.181.678.102 1.066-.053.27-.135.787.46.777-.006-.033-.006-.069-.006-.102 0-.27.116-.523.063-.83a12.81 12.81 0 0 0-.649-2.406c-.378-1.023-1.03-1.82-1.813-2.498-1.238-1.073-2.67-1.794-4.405-2.001.514-.28.935-.494 1.343-.734 1.13-.672 2.282-1.31 2.818-2.644.125-.31.277-.671.619-.879.155-.095.003-.246-.026-.365.046-.05.085-.092.131-.138.3-.685.79-1.304.659-2.127-.027-.17.026-.362.072-.536.369-1.468.625-2.966 1.142-4.391.073-.201.171-.49-.138-.576-.244-.066-.362.177-.412.368-.319 1.126-.688 2.235-1.168 3.305-.25.56-.32 1.189-.619 1.742-.257.47-.899.641-.971 1.25-.006.033-.06.066-.095.096-.705.628-1.38 1.297-2.166 1.83.016.02.03.043.042.06l-.046-.06c-.135.089-.276.178-.411.27-1.017.5-2.143.645-3.236.964.244.336.583.234.882.277.593.079.876.513.919 1.03.026.352-.316.675-.642.685-1.106.036-2.117.464-3.177.658-1.517.28-2.775 1.093-4.091 1.771-.662.346-1.294.866-1.81 1.4-1.166 1.19-2.233 2.484-2.993 4.015-.23.46-.431.872-.392 1.386-.319.003-.635.003-.954.003-.454-.194-.027-.681-.346-.977-.49-.451-.704-1.106-1.04-1.673a11.845 11.845 0 0 0-2.39-2.867c-.99-.862-2.126-1.573-3.354-2.152-1.643-.784-3.341-1.241-5.112-1.485-.56-.076-1.01-.2-1.132-.75-.109-.471.414-.929 1.036-1.034.274-.046.606.04.81-.431-.503.312-.806-.086-1.188-.158-2.12-.415-3.848-1.432-4.865-3.43-.03-.056-.08-.142-.125-.145-.688-.056-.88-.649-1.001-1.12-.27-1.013-.787-1.935-1.04-2.952-.138-.546-.362-1.073-.55-1.606-.066-.191-.18-.346-.398-.257-.191.076-.142.263-.099.418.277.977.639 1.939.813 2.936.158.902.645 1.787.277 2.755-.04.102.006.28.158.194.325-.19.214.096.23.198.122.793.454 1.491.909 2.146.273.395.444.87.743 1.238.945 1.162 2.292 1.77 3.618 2.475-1.159.23-2.232.52-3.173 1.133-.915.595-1.834 1.224-2.396 2.182-.646 1.1-1.146 2.271-1.317 3.552-.023.177-.04.368-.01.543.03.171.082.395.3.405.283.013.227-.24.227-.405-.017-.616.098-1.208.276-1.794.49-1.63 1.435-2.986 2.857-3.861 1.393-.86 2.99-1.356 4.675-1.143 1.188.149 2.4.024 3.71.31-.77.388-.774 1.066-.935 1.633-.948 3.255-2.87 5.52-6.317 6.227-2.92.6-4.605-.042-5.968-2.32-.639-1.07-1.014-2.248-1.014-3.506-.003-.257.28-.619.007-.744-.32-.145-.343.415-.632.5-.043.017-.056.12-.09.178-1.49 2.541-2.307 5.27-2.327 8.226-.003.198.06.415-.131.57.135.227.115.477.141.727.066.672.122 1.346.277 2.011a13.994 13.994 0 0 0 2.04 4.635c1.011 1.505 2.311 2.7 3.924 3.542.662.349 1.307.727 1.995 1.014 1.406.586 2.897.961 4.404 1.043 1.027.056 2.1.369 3.121-.098.833-.247 1.675-.451 2.466-.82.375-.089.72-.25 1.066-.428.955-.49 1.758-1.201 2.633-1.797.817-.556 1.567-1.26 1.923-2.248.069-.198.273-.458-.007-.61-.27-.144-.372.155-.517.317-1.027 1.165-2.166 2.182-3.683 2.679-.948.31-1.814-.316-1.83-1.336.135-.29-.004-.623.589-.754 1.06-.237 1.336.51 1.886 1.03-.158-.59-.062-1.221-.372-1.797-.648-1.225-1.82-1.745-3.028-2.113a25.793 25.793 0 0 0-2.37-.613c-.056-.108-.158-.135-.27-.141-.803-.57-.556-1.41-.553-2.186.099-.122.267-.24.283-.375.072-.547.464-.48.816-.438.408.05.724.237.85.678.059.217.098.389-.1.547-.197.157-.322.134-.516-.05-.34-.326-.477-.079-.5.26-.017.264.072.576.296.642.25.08.543.168.843-.007.595-.348.803-.796.585-1.78-.138-.629-.704-.87-1.277-.962a4.181 4.181 0 0 0-1.297-.006c-.872.138-1.484.635-1.767 1.491-.75.912-.3 1.827 0 2.742l.276.27c.053.132.142.22.27.277-.016.368-.336.697-.138 1.092.006.573.079.968.253 1.228.175.26.448.389.846.418.33.497.83.217 1.251.26.392.043.8-.115.708.596-.046.372.085.846.372 1.198.013.273.194.425.411.55.175.25.34.51.685.546.04.307-.109.435-.408.409-.728.309-1.452.092-2.183 0-2.077-.274-3.65-1.31-4.832-3.029-.474-.688-.875-1.435-1.484-2.027-.438-.425-.961-.662-1.534-.458-.468.165-.767.079-1.06-.283-.125-.155-.306-.264-.47-.389-.965-.75-2.183-1.099-3.072-1.991-.563-.57-1.063-1.666-.899-2.373 2.153 1.297 4.45 2.004 6.988 1.636.84-.126 1.692-.28 2.413-.797.09-.066.218-.089.205-.23-.014-.135-.122-.185-.24-.185-1.18-.006-2.048-.645-2.881-1.376-.74-.651-1.221-1.438-1.34-2.429-.026-.214.04-.313.267-.224 1.29.484 2.554.408 3.904.092 2.166-.503 3.772-1.682 5.006-3.453.35-.5.665-1.023.998-1.537-.119.85.01 1.662.092 2.462.151 1.488.517 2.93 1.221 4.266.046.28.135.54.412.685.151.382.184.82.546 1.096.007.115.033.214.138.273.596.817 1.195 1.627 2.058 2.193.197.22.388.444.592.658 1.554 1.636 3.387 3.018 4.619 4.954-.162.665.075 1.471-.685 1.92-.807-.189-1.027-.765-.517-1.4.184-.234.06-.398-.115-.513-.224-.139-.448-.056-.573.164-.072.132-.02.34-.178.425-.938.52-.96 1.419-.935 2.31.03.998.636 1.874 1.324 1.867.556-.007.579.257.54.652-.116 1.211.266 1.886 1.389 2.439.118-.484.233-.965.355-1.471.267.487.142 1.06.5 1.527.52-.54 1.343-.81 1.235-1.758-.053-.365.346-.727 0-1.093l.003-.276c1.12-.004 1.547-.379 1.814-1.39.385-1.448-.227-2.468-1.28-3.344-.116-.102-.221-.168-.346-.036-.096.099-.214.204-.122.352.06.096.161.162.23.247.247.303.106.882-.309 1.149-.369.234-.635.214-.856-.263-.296-.642-.283-1.393.132-1.946.122-.161.217-.345.32-.52.79-1.142 1.928-1.949 2.87-2.946 1.619-1.712 3.624-3.1 4.532-5.405.451-.773.813-1.58.961-2.465.685-1.538.636-3.167.55-4.951 2.35 4.164 5.563 6.205 10.33 5.026-.06.191-.139.379-.178.573-.306 1.518-2.216 3.282-3.746 3.456-.21.027-.517-.121-.596.168-.08.29.326.247.438.445.046.085.18.148.29.168 1.389.28 2.735.78 4.22.474 1.523-.317 3.021-.626 4.325-1.528.092-.089.187-.178.28-.266.046-.004.088-.007.131-.004.099.935-.224 1.745-.862 2.393-1.199 1.218-2.99 1.613-4.148 2.9-.036.043-.128.03-.197.043-.715-.615-1.824-.03-2.436.879-.61.895-1.159 1.86-1.913 2.617-.773.77-1.718 1.415-2.85 1.63-1.06.197-2.114.569-3.213.24-.145-.043-.349.01-.388-.204-.033-.168.125-.224.23-.303.846-.636 1.224-1.501 1.218-2.538 0-.24.086-.264.267-.264.319 0 .645.033.96-.01.731-.098 1.442-.263 1.722-1.083.165-.48.208-.98.037-1.461-.112-.313-.007-.54.177-.75.777-.906.975-1.887.379-2.96-.85-1.527-1.886-1.8-3.424-1.432-1.066.254-1.224 1.169-.941 2.11.135.438.553.63 1.024.655.296.014.464-.131.572-.391.086-.198.139-.402-.03-.576-.22-.23-.358.059-.532.105-.409.115-.557-.132-.563-.467-.007-.461.684-.939 1.158-.906.711.05.774.675.942 1.103.243.626-.191 1.653-.691 1.916-.712.382-1.492.563-2.272.708-2.027.385-3.387 1.662-3.779 3.624-.032.17.027.303.28.493-.19-.56.323-.569.49-.862.373-.662 1.001-.293 1.475-.23.336.042.313.546.31.892-.004.158-.004.319-.007.477-.457.273-.833.685-1.37.826-.453-.194-.94-.29-1.378-.55-1.103-.648-2.104-1.402-2.867-2.445-.1-.132-.221-.264-.392-.188-.21.089-.076.26-.06.408.11.886.794 1.38 1.324 1.979.533.599 1.294.892 1.912 1.392.711.573 1.492 1.103 2.42 1.323.184.09.368.178.553.267.734.23 1.455.56 2.202.661 1.372.191 2.755.047 4.114-.19a15.257 15.257 0 0 0 6.702-2.937l.688-.546c.102-.171.148-.405.412-.411l.816-.958c-.02-.211.194-.264.28-.408.365-.593.727-1.189 1.093-1.781.925-1.949 1.481-3.98 1.363-6.162zm-46.736.105c.793.938 1.748 1.636 3.025 2.16-2.716.723-5.096.17-7.38-.968-.434-.221-.73-.669-1.254-.787-.286-.07-.181-.402-.198-.6-.164-2.093.698-5.608 1.893-7.662.122.625.224 1.181.372 1.721.398 1.435 1.248 2.499 2.423 3.351.27.194.283.389.31.734.052.721.295 1.445.809 2.05zm17.808 5.783c-.688-.49-1.093-1.234-1.61-1.87-.506-.625-.941-1.31-1.408-1.964a83.892 83.892 0 0 0-.277-.547c-.365-.944-.79-1.873-.958-2.88-.095-.583-.128-1.162-.28-1.748-.17-.685.01-1.468.073-2.205.036-.399.178-.79-.086-1.172-.28.194-.28.493-.368.744-.188.507-.54.757-1.06.826-.534.072-.734-.326-.919-.675-.388-.747-.368-1.587-.266-2.37.082-.616.316-1.218.391-1.85.033-.25.08-.425.497-.316 2.012.543 3.684 1.682 5.096 3.11 1.066 1.077 2.008 2.358 2.235 3.97.053.37-.05.557-.444.596-.754.073-1.426-.283-1.814-1.007-.063-.118-.109-.3-.267-.27-.187.04-.194.234-.184.395.056.803.293 1.537.961 2.028.382.283.31.45.003.698-.566.457-.855 1.053-.83 1.787.008.138 0 .296.142.362.181.08.208-.108.297-.2.572-.606 1.36-.79 2.113-1.011.45-.132.26.359.253.447-.062 1.36-.22 2.71-.734 3.987-.075.194-.17.375-.151.589-.128.181-.27.362-.405.546zm4.02 1.126c-.33.346-.636.711-.731 1.202-.76.148-.498 1.014-.958 1.369.026-.918-.777-1.363-1.166-2.044a2.546 2.546 0 0 0-.45-.586c-.35-.323-.211-.698-.172-1.067.096-.184.191-.365.283-.546.534-.724.622-1.61.77-2.436.129-.72.178-1.484.159-2.228-.01-.415.141-.563.477-.527.329.033.82-.138.843.474.036 1.08.013 2.163.335 3.216.211.691.356 1.409.75 2.021.297.458.198.793-.14 1.152zm7.9-13.315c-.07.237-.12.494-.24.705-.202.345-.39.744-.923.668-.52-.073-.869-.326-1.053-.836-.089-.244-.079-.55-.431-.77-.237 1.303.332 2.554.05 3.795-.004.046-.004.092-.004.138.02.017.036.036.06.053.022.023.055.053.095.089-.04.006-.033.04-.027.069a.45.45 0 0 0-.263.062c-.148.639-.076 1.32-.408 1.916-.431 1.547-1.175 2.913-2.202 4.157-.441.534-.866 1.093-1.297 1.643-.425.543-.524.573-.823-.056-.392-.823-.593-1.702-.767-2.597-.155-.783-.08-1.574-.155-2.383.24.016.48.04.718.056.55.25 1.132.447 1.59.869.102.099.108.349.329.25.168-.08.138-.27.138-.428.02-.941-.53-1.54-1.231-2.06.727-.547 1.277-1.196 1.32-2.176.013-.277-.01-.468-.214-.662-.566 1.224-1.705 1.695-2.482 1.06.402-2.373 1.81-4.036 3.68-5.461 1.11-.846 2.268-1.481 3.591-1.886.303-.092.56-.076.583.204.089 1.198.73 2.34.365 3.581zM57.7 46.97c-.27.063-.493.336-.74.513-2.36 1.38-4.859 1.87-7.581 1.199 1.024-.583 2.07-1.093 2.755-2.064.523-.74 1.178-1.442.909-2.479-.056-.22.16-.26.276-.336 1.26-.905 2.176-2.047 2.545-3.578.121-.503.217-1.01.345-1.59 1.455 2.426 1.745 5.07 1.853 7.759-.006.26.023.49-.362.576z" fill="#725DB2"/>
    <path d="M64.248 36.761c-.25-.273-.125-.605-.161-.915 0-.092.003-.18.003-.273.247-.184-.05-.369-.007-.55.096-1.195-.296-2.317-.493-3.47-.175-1.03-.744-1.895-1.15-2.823-.305-.794-.845-1.462-1.323-2.134-.45-.631-.921-1.34-1.685-1.708-.336-.507-.833-.826-1.33-1.129-1.366-.84-2.887-1.257-4.43-1.61-1.314-.223-2.627-.342-3.964-.217-.826.076-1.55.478-2.35.632 1.251-1.102 2.337-2.343 3.14-3.815.139-.253.313-.25.504-.148.517.27 1.096.277 1.643.408 1.194.296 2.28 0 3.304-.615.086-.053.139-.22.26-.109.116.105.228.244.267.388.053.191-.151.195-.27.22-.484.113-.843.432-1.244.692-.658.431-1.073 1.1-1.603 1.653-.168.177-.204.454.04.589.23.131.332-.033.42-.27.12-.31.333-.586.517-.872.494-.774 2.018-1.432 2.91-1.271a.64.64 0 0 1 .405.23c.287.346.346.679-.023 1.018-.332.3-.648.612-1.102.207-.122-.109-.215-.253-.396-.119-.111.08-.098.178-.059.3.297.86 1.817 1.646 2.594 1.323 1.212-.497 1.978-2.097 1.445-2.906-.444-.668-.19-1.047.346-1.419.072-.053.158-.095.224-.155.536-.487.82-1.735.095-2.29-.668-.511-1.284-.603-2.034-.126-.191.119-.517.47-.652.03-.142-.461-.49-.701-.78-1-.767-.79-2.281-.725-3.134.108-.49.484-.434 2.264.096 2.837.075.09.158.178.286.122.178-.079.109-.207.072-.342-.046-.181-.358-.274-.164-.527.263-.342 1-.392 1.389-.086.379.297.385.784.03 1.199-.34.388-.705.566-1.28.566-.63.003-1.262.118-1.894-.004-1.448-.28-2.686-1.06-3.98-1.705l-.137-.138c-.527-.316-1.014-.708-1.646-.82-4.125-1.978-8.098-1.504-11.943.856 1.294-1.603 1.696-3.344 1.228-5.227-.46-1.866-1.58-3.334-3.239-4.434 2.334-.48 4.977.784 6.287 2.377.106.131.175.296.369.184.184-.105.115-.247.033-.405a2.884 2.884 0 0 1-.267-.694c-.355-1.554-1.237-2.798-2.235-3.996-1.024-1.225-2.347-2.061-3.67-2.9.369-.01.714-.205 1.093-.142 1.382.168 2.68.622 3.973 1.103.253.25.589.28.908.372.48.135 1.116.062 1.327.668.188.533.622.681 1.056.872.465.293.919.109 1.373-.02a4.439 4.439 0 0 1 3.042.25c1.652.751 2.715 2.137 3.673 3.608.004.043.007.09.007.132.2.797.2.797-.622.688-.066-.007-.135 0-.201 0-.382-.007-.816-.086-1.08.23-.296.353-.438.139-.596-.075-.296-.392-.599-.774-1.066-.981-1.458-1-2.32-.922-3.154.276-.697-.036-1.412.02-1.85.616-.45.605-.615 1.323-.454 2.107.158.776.682 1.303 1.449 1.356.74.049 1.402-.412 1.402-.981 0-.247-.056-.49-.356-.468-.207.02-.362.09-.322.438.046.421-.22.698-.75.543-.488-.141-.689-.51-.78-.931-.12-.534.457-.517.704-.764a5.852 5.852 0 0 1 1.642.138c.283.217.659.382.833.665.438.711 1.033 1.251 1.636 1.8.326.169.57.485.958.55 1.405.718 3.242.076 3.222-1.155-.088.046-.16.105-.24.128-.32.086-.668.26-.905-.131-.21-.346-.415-.705-.175-1.136.214-.378.514-.467.912-.322.102.036.227.006.34.01.045.003.088.003.134.003.099.158.257.131.408.141.22.494.62.984.632 1.481.043 1.465.188 2.976-.628 4.322-.139.228-.109.415.069.53.214.145.345-.082.411-.227.142-.306.247-.632.34-.957.493-1.755.572-3.542.253-5.323-.198-1.1-.376-2.245-1.208-3.12-.027-.662-.487-1.117-.813-1.624-.856-1.326-1.804-2.577-3.17-3.443l-.139-.138c-.309-.316-.71-.487-1.096-.681-.098-.158-.26-.132-.414-.135-.046 0-.09-.004-.135-.004-.076-.082-.135-.197-.227-.243-1.82-.866-3.733-1.432-5.787-1.4-.162.014-.323.02-.49.02-.761 0-1.528-.095-2.256.254-.135.046-.27.096-.408.142-.464-.037-.935-.08-1.376.131-.25.007-.49.017-.74.083-1.07.283-2.143.227-3.236.072C29.096.586 27.59.158 26.02.131c-1.458-.03-2.926-.138-4.299.517-.046.003-.089.007-.135.007-.507-.03-.938.197-1.369.411-.23.138-.458.27-.688.408-.593.122-1.11.431-1.646.688-.908.527-1.695 1.221-2.386 1.995-.455.507-1.047.951-1.182 1.695a.284.284 0 0 0-.28.181c-.046.102-.072.22-.128.306-1.807 2.637-2.397 5.54-1.903 8.68.112.722.3 1.42.566 2.094.073.184.211.418.451.313.28-.128.214-.365.046-.566-.197-.237-.263-.53-.352-.807-.352-1.11-.286-2.258-.3-3.39-.006-.77.712-1.623 1.354-1.742.378-.128.773-.204 1.027.198.27.418.217.862-.09 1.254-.358.454-.783.214-1.207 0 .121.668 1.112 1.485 1.84 1.508.345.013.78.27 1.037-.218a.905.905 0 0 0 .543-.141c.184-.135.368-.27.553-.408.372-.211.71-.461.958-.82.5-.349.783-.872 1.096-1.37.391-.13.655-.516 1.096-.549.092 0 .184 0 .276-.003h.543c.35-.06.613.125.876.306.33.227.214.5.092.787-.18.424-.523.668-.948.648-.29-.016-.513-.28-.428-.639.083-.348-.174-.381-.388-.398-.303-.02-.313.217-.29.428.04.356.08.675.507.863.622.273 1.264.309 1.722-.096.727-.642.872-1.564.55-2.465-.247-.698-.636-1.36-1.554-1.343h-.678c-.056-.04-.132-.066-.162-.122-.543-.896-.855-1.027-1.82-.701-.889.302-1.735.671-2.252 1.534-.072.121-.227.391-.398.22-.642-.658-1.37-.365-2.087-.247a.656.656 0 0 1-.135-.392c0-.2.102-.395.224-.589.287-.45.583-.898.873-1.35l.41-.55a.471.471 0 0 0 .277-.272c.056-.036.122-.066.168-.109 1.508-1.435 3.22-2.064 5.293-1.435.777.234 1.465-.142 1.985-.882.234-.336.487-.645 1-.662.333-.006.725-.072 1.012-.336 1.22-.49 2.435-1.004 3.759-1.188.572-.082 1.066-.056 1.494.204-1.685.899-3.1 2.087-4.233 3.601a10.015 10.015 0 0 0-1.78 3.786c-.044.184-.297.355-.008.503.23.119.287-.131.399-.266.813-.968 1.876-1.613 3.028-2.044.889-.333 1.86-.432 2.828-.356.085.01.224-.01.257.04.134.19-.086.204-.175.263-.915.632-1.567 1.484-2.179 2.4-1.455 2.185-1.146 5.266.54 7.037-.833-.207-1.468-.642-2.15-.97-.072-.159-.2-.228-.362-.284-1.432-.52-2.92-.754-4.44-.806-.632.01-1.248.151-1.867.23-1.87.234-3.532.961-5.085 1.949-1.893 1.208-3.875 2.011-6.179 1.748-.504-.06-1.201-.86-1.122-1.35a.778.778 0 0 1 .556-.635c.402-.129.78.02 1.09.27.256.207-.09.339-.135.513-.037.132-.122.264.049.352.161.08.26-.036.33-.158.285-.526.532-1.09.4-1.685-.085-.405.004-.918-.434-1.178-1.557-.925-2.465-.978-3.644.69-.316.452-.52.445-.908.188-.678-.444-1.274-.368-1.86.1-.556.447-.622 1-.326 1.872.171.507.632.698.961 1.017.264.25.26.382.086.665-.303.494-.379 1.004-.181 1.61.293.908.84 1.527 1.734 1.718.89.191 1.745-.349 2.245-1.237.08-.139.214-.264.04-.412-.178-.151-.286-.02-.395.109-.27.329-.59.224-.85.026-.305-.227-.608-.51-.45-.968.125-.355.388-.51.793-.52 1.317-.03 2.637.803 3.203 2.11.105.247.174.461.45.303.202-.112.198-.431.04-.54-.464-.32-.628-.882-1.093-1.208-.592-.415-1.066-.994-1.803-1.191-.201-.056-.323-.195-.132-.405.102-.112.115-.313.398-.119 1.057.728 2.245.922 3.493.629.48-.119.99-.112 1.445-.372.204-.122.391-.105.553.171.806 1.399 1.787 2.66 3.051 3.71-.079.026-.125.056-.161.05a.556.556 0 0 1-.191-.057c-1.04-.454-2.127-.714-3.256-.596-1.145.116-2.324.023-3.426.422-.981.358-2.008.586-2.946 1.053-1.518.754-2.693 1.936-3.723 3.223-.425.533-.87 1.145-1.037 1.863-.135.184-.27.365-.408.55-.073.329-.461.467-.527.77-.346 1.563-.938 3.08-.98 4.704.019 1.086-.218 2.166.111 3.255.145.477-.026 1.037.165 1.54a20.62 20.62 0 0 0 .958 3.105c.688 1.718 1.405 3.4 3.015 4.51.438.299.777.566 1.1-.083a1.382 1.382 0 0 0-.356-.428.953.953 0 0 0-.55-.197c.606-.323.622-.333.181-.807-.477-.517-.747-1.129-.915-1.797-.23-.915-.484-1.824-.695-2.745-.079-.34-.474-.596-.27-1.008.307.1.514.092.695-.27.355-.694.165-1.362-.007-2.034-.276-1.066-1.04-1.903-1.418-2.93-.129-.352.174-.865-.36-1.07v-.27c.113-.016.254-.045.238-.18-.092-.639.22-1.241.168-1.876.359-.544.54-1.153.684-1.778.056-.066.129-.132.165-.21.405-.85.57-.876 1.333-.304.237.181.23.31.135.56-.19.487-.382.984-.464 1.494-.109.679-.138 1.403.237 2.012.296.487.744 1.237 1.33.911.767-.427.767.172 1.014.471.161.191.283.398.5.547.774.54 2.255.546 3.344-.524.758-.744.754-1.066.458-2.09-.142-.484-.583-.586-1.06-.543-.385.03-.609.188-.655.642.448-.175.843-.639 1.228-.033.24.382.122 1.465-.25 1.64-.478.223-.932.026-1.314-.3-.099-.086-.174-.211-.253-.323-.57-.803-.734-1.725-.823-2.686-.092-.994.306-1.929.283-2.91v-.408c0-.303-.352-.49-.273-.823-.208-.323-.405-.652-.632-.961-.086-.115-.214-.303-.382-.184-.145.098-.086.292-.02.437.102.23.237.445.214.708-.003.181-.007.365-.007.546-.263.158-.49.395-.82.415-.378.04-.634-.102-.845-.438a1.847 1.847 0 0 1 .415-2.475c.5-.398 1.066-.681 1.649-.928 1.63-.698 3.295-1.28 5.092-1.36 1.61-.066 3.157.135 4.582.971.5.297.458.573.135.935-.283.316-.57.632-.86.945-.713.783-1.447 1.534-2.672 1.438.07.445.444.527.744.603.757.197 1.51.194 2.212-.244.175-.108.365-.313.612-.105.21.174.096.362.063.56-.036.22-.066.457.082.661l1.38 1.906c0-.477.006-.813-.004-1.142-.033-1.185-.007-2.36.546-3.45.27-.523.5-.553.88-.095.276.329.503.7.776 1.03 1.393 1.652 2.021 3.552 1.952 5.708-.03.862-.006 1.728-.21 2.577-.047.188-.02.316.154.389.175.072.313-.004.408-.155.109-.171.178-.359.191-.576.046-.718.06-1.449.063-2.16.006-.5.095-1.092-.2-1.586-.004-.09-.008-.178-.008-.27-.098-1.208-.668-2.242-1.171-3.308-.455-.955-1.294-1.544-1.995-2.265-.092-.092-.254-.188-.184-.332.102-.211.276-.076.411-.02.635.253 1.29.401 1.968.513 2.706.455 4.872-.661 6.686-2.468 1.126-1.12 1.912-2.538 2.36-4.092.155-.54.362-1.083.296-1.672-.02-.181-.072-.313-.276-.313-.125 0-.247.043-.21.194.2.81-.29.484-.643.395-.563-.135-.987-.5-1.29-.951-1.231-1.81-1.165-3.74-.375-5.685.48-1.185 1.267-2.103 2.353-2.847.593-.405 1.077-.566 1.62-.198 2.534 1.715 3.604 4.326 2.923 7.176-.293 1.212-.958 2.202-2.255 2.59-.21.063-.415.123-.451-.2-.023-.174.257-.514-.204-.46-.333.042-.234.361-.217.559.075.958.424 1.837.816 2.699.816 1.787 1.988 3.272 3.683 4.299 2.173 1.317 4.45 1.333 6.781.474.218-.079.438-.234.504.155-1.093.892-2.034 1.896-2.643 3.203-.86 1.856-1.063 3.798-.922 5.806.03.382-.079.777.086 1.146.095.217.204.447.497.352.273-.09.167-.3.131-.51-.27-1.597-.29-3.213.02-4.8.346-1.77 1.547-3.104 2.62-4.476.125-.162.343-.405.629-.172.909 1.491.648 3.167.688 4.852.536-.428.727-1.02 1.152-1.428.32-.313.441-.685.32-1.113-.162-.586.177-.58.556-.46.345.111.661.309 1.01.414.774.227 1.774-.132 2.077-.76-.596.145-1.083-.06-1.553-.35-.929-.569-1.468-1.51-2.206-2.26-.188-.188-.105-.307.08-.435a6.469 6.469 0 0 1 2.32-1.014c1.405-.313 2.794-.01 4.193-.05.386.136.767.277 1.156.405 1.596.514 3.196 1.014 4.463 2.2.076.641.455 1.28.004 1.918-.376.58-.807.712-1.353.415-.5-.266-.6-.75-.3-1.37.096-.19.247-.39.046-.608-.967.609-1.49 1.988-1.237 3.19.095.46.174.921.24 1.389-.003.454-.007.908-.007 1.362-.22.195-.098.455-.135.685l-.816 1.65c-1.09.704-1.662.51-1.817-.623-.046-.355.053-.671.355-.902.29-.22.504-.033.731.125.086.056.198.132.31-.013-.125-.592-.596-.507-1.02-.507-.458 0-.633.336-.731.695-.317 1.139-.043 1.711 1.073 2.317a.416.416 0 0 0 .411.273c.191.23.454.106.685.139.836.266 1.804-.172 2.297-1.07.109-.198.297-.514.402-.415.372.359.76.313 1.08.076.306-.234.684-.464.75-.919.135-.161.372-.296.138-.55-.075-.18-.128-.361-.003-.546.277-.81-.2-1.474-.411-2.192-.257-.602.256-.704.595-.915.23-.138.51-.254.642.06.385.908.817 1.813 1.067 2.76.267 1.024.253 2.1.161 3.16-.583 1.015-1.29 1.973-1.583 3.111-.155.603-.257 1.238.132 1.893.22.369.714.027.766.474-.088.139-.177.277-.27.415-.138.352-.319.701-.398 1.07-.342 1.53-.438 3.153-1.79 4.243.19.233.48.092.661.484-.47-.336-.497.141-.566.161-.688.217-.112.612-.046.72.19.32.372-.058.53-.144.296-.158.563-.385.813-.612 1.774-1.63 2.34-3.881 3.137-6.024.415-1.123.099-2.396.754-3.463a.558.558 0 0 0-.09-.178zM31.117 17.636c-.566.284-.375.738-.53 1.08-.487 1.053-.968 2.127-1.735 2.992-1.547 1.735-3.44 2.769-5.872 2.59a14.438 14.438 0 0 1-2.262-.322c-.434-.098-.625-.243-.23-.668.553-.59.922-1.33 1.567-1.863.474-.385.951-.688 1.547-.793.316-.06.336-.158.112-.385-.659-.642-1.514-.79-2.324-.293-.53.325-.639.131-.622-.366a.999.999 0 0 0-.162-.58c-.23-.368-.273-1.069-.767-.97-.411.085-.395.806-.388 1.215.017 1.21-.793 2.063-1.185 3.09-.099.264-.217.22-.454.119-1.205-.53-2.035-1.439-2.769-2.492a24.38 24.38 0 0 0-.97-1.307c-.09-.115-.303-.197-.168-.388.102-.148.283-.135.44-.086.25.076.544.267.425-.273-.01-.04.379-.217.596-.257 1.01-.184 1.893-.786 2.9-.931 1.185-.171 2.39-.372 3.591-.053 1.054.28 2.153.441 3.144.863.628.266 1.353.546 1.774 1.198.07.105.175.243.333.168.15-.073.134-.254.088-.36-.2-.486-.062-.927.1-1.388.213-.626.5-.774 1.105-.448.794.428 1.65.678 2.716.909zm-.343-11.23c-2.03-.544-3.594.638-5.342 1.477.152-.875.58-1.547 1.05-2.153.912-1.181 1.876-2.314 3.134-3.183.737-.513 1.59-.76 2.373-1.165.421-.217.691.388 1.12.365 2.636 1.294 4.436 3.358 5.546 6.09-.58-.286-1.162-.563-1.735-.859-1.053-.543-2.123-.81-3.341-.612-.915.148-1.87.033-2.805.04zm15.218 16.162c-.474-1.054-1.201-1.989-1.277-3.223-.023-.415.069-1.13-.5-1.211-.504-.08-.517.589-.695.95-.293.593-.626.807-1.231.742-.892-.435-1.488.134-2.18.717 1.166.066 1.9.846 2.72 1.478.253.504.484 1.02.964 1.363.214.326-.003.454-.266.53-1.824.536-3.638.675-5.425-.152-1.511-.698-2.824-1.6-3.555-3.19-.171-.371-.389-.77-.76-1.023-.05-.23-.076-.477-.116-.718-.043-.237-.099-.464-.217-.655-.333-.543-.056-.582.342-.69.728-.202 1.412-.495 2.09-.824.498-.24.77-.02.975.5.247.63.224 1.222.006 1.798.112.138.205.115.267.04.87-1.011 2.031-1.479 3.279-1.818 1.227-.332 2.455-.73 3.739-.625.797.066 1.613.112 2.383.388h.138l.412.139c.372.25.97.088 1.175.658.05.141.178.043.286.016.422-.092.428-.072.784.412.112.148.283.095.425.04.174-.073.345-.155.48.049.155.23-.02.395-.148.54-.961 1.066-1.666 2.366-2.867 3.219-.379.237-.734.55-1.228.55z" fill="#725DB2"/>
    <path d="M33.183 14.536c-.128.164-.276.405-.546.339-.264-.066-.333-.26-.3-.524.033-.283-.174-.16-.32-.18-.233-.027-.27.022-.2.25.06.19-.05.362-.23.44-.175.073-.29-.078-.412-.18-.566-.481-.945-1.403-.945-2.318.126-.81.257-1.626.876-2.228.204-.198.438-.84.833-.135.023.04.227.046.253.006.494-.737.75-.013.922.214 1.014 1.366.988 3.124.07 4.316zM18.746 37.65c-.342.899-.54 1.86-1.267 2.58-.754.745-1.567 1.354-2.627 1.584-.276.063-.388-.016-.392-.286-.003-.2 0-.408 0-.612.267-1.093.797-2.002 1.781-2.6.32-.14.6-.373.958-.416a3.138 3.138 0 0 1 1.234-.276c.07-.115.136-.27.303-.204.1.04.046.141.01.23zM49.7 41.926c-2.486-.556-3.819-2.117-4.31-4.483 2.453.507 4.385 1.504 4.31 4.483zM30.31 35.056v1.449l-1.419 1.004c.945.085 1.969.45 3.068 1.093l.586-.77.405.292-2.37 2.532c-1.689-1.08-2.976-1.383-3.858-.912l-.224-.194c.668-.823 1.27-1.557 1.8-2.206l-.006-7.745c.07-1.113-.372-1.538-1.314-1.274l-.697.484-.244-.376 4.263-3.13v2.442c.977-1.458 1.896-2.251 2.752-2.38 1-.101 1.955.221 2.87.968.915.748 1.425 1.834 1.534 3.272.109 1.432-.639 2.986-2.238 4.651-1.597 1.666-3.233 1.933-4.908.8zm-.01-6.237.01 3.048c.615 1.313 1.498 1.975 2.66 1.975 1.158 0 1.971-.362 2.442-1.09.467-.724.444-1.692-.072-2.907-.517-1.21-1.304-1.968-2.354-2.27-1.03-.3-1.922.114-2.686 1.244z" fill="#725DB2"/>
</svg>
